<svg width="152" height="152" viewBox="0 0 152 152" fill="none" xmlns="http://www.w3.org/2000/svg">
<rect width="152" height="152" fill="#006DB1"/>
<path fill-rule="evenodd" clip-rule="evenodd" d="M39.3076 122.139C41.4828 122.066 43.658 121.996 45.8332 121.952C48.0083 121.908 50.1835 121.89 52.3587 121.879C53.0702 121.875 53.6528 122.458 53.6528 123.165C53.6528 123.351 53.6528 123.531 53.6528 123.707C53.6528 124.418 53.0702 124.993 52.3587 124.993C50.1835 124.993 48.0047 124.993 45.8332 124.993C43.658 124.993 41.4828 124.993 39.3076 124.993C38.5961 124.993 38.0136 124.476 38.0136 123.839C38.0136 123.681 38.0136 123.513 38.0136 123.348C38.0172 122.714 38.5961 122.164 39.3076 122.139ZM56.7902 121.732C59.3451 121.696 61.8963 121.659 64.4476 121.644C66.9988 121.63 69.55 121.593 72.0976 121.586C72.9418 121.582 73.6165 122.223 73.6165 123.007C73.6165 123.212 73.6128 123.41 73.6128 123.604C73.6091 124.377 72.9234 124.996 72.0791 124.996C69.5169 124.996 66.9582 124.996 64.3996 124.996C61.841 124.996 59.2824 124.996 56.7238 124.996C55.8832 124.996 55.2196 124.407 55.2307 123.674C55.2344 123.487 55.2381 123.3 55.2417 123.113C55.2491 122.37 55.9533 121.743 56.7902 121.732ZM56.9266 115.717C59.4668 115.607 62.0032 115.504 64.5397 115.431C67.0725 115.358 69.6127 115.303 72.1566 115.274C72.9861 115.263 73.6718 115.9 73.6571 116.688C73.6534 116.882 73.6571 117.08 73.6571 117.277C73.6534 118.061 72.9676 118.706 72.1308 118.71C69.5869 118.725 67.0394 118.772 64.4955 118.816C61.9516 118.86 59.4004 118.919 56.8639 118.992C56.0307 119.018 55.3487 118.431 55.3634 117.688C55.3671 117.512 55.3671 117.325 55.3708 117.138C55.3929 116.406 56.0934 115.753 56.9266 115.717ZM57.0593 109.694C59.5847 109.511 62.1102 109.342 64.6356 109.222C67.161 109.104 69.6864 109.02 72.2082 108.965C73.034 108.947 73.7271 109.592 73.7161 110.379C73.7124 110.577 73.705 110.771 73.705 110.969C73.7013 111.753 73.0156 112.39 72.1861 112.401C69.6533 112.438 67.1241 112.519 64.5914 112.607C62.0622 112.694 59.5258 112.834 56.9966 112.98C56.1634 113.028 55.4888 112.46 55.5109 111.724C55.5183 111.537 55.5183 111.35 55.5219 111.174C55.5367 110.43 56.2335 109.756 57.0593 109.694ZM57.1884 103.664C59.7027 103.408 62.2171 103.184 64.7314 103.016C67.2421 102.847 69.7528 102.726 72.2561 102.653C73.0819 102.627 73.7603 103.272 73.7603 104.045C73.7603 104.25 73.764 104.448 73.7603 104.642C73.7492 105.426 73.0672 106.075 72.234 106.093C69.7233 106.152 67.2053 106.265 64.6835 106.408C62.1655 106.551 59.64 106.745 57.1257 106.958C56.2962 107.027 55.6289 106.496 55.651 105.76C55.6584 105.565 55.6584 105.386 55.662 105.192C55.6805 104.448 56.3662 103.748 57.1884 103.664ZM57.3321 97.6524C59.8318 97.3227 62.3314 97.0296 64.8347 96.8171C67.3343 96.6047 69.8413 96.4508 72.3372 96.3556C73.1594 96.3226 73.8156 96.9527 73.8045 97.7403C73.8009 97.9345 73.8082 98.1323 73.8045 98.3301C73.7935 99.1141 73.1262 99.7735 72.3077 99.8028C69.797 99.8834 67.2864 100.015 64.7831 100.195C62.2724 100.378 59.7654 100.634 57.2584 100.931C56.4326 101.03 55.78 100.528 55.7911 99.7735C55.7948 99.5977 55.7911 99.3999 55.7948 99.213C55.8243 98.4657 56.5026 97.7586 57.3321 97.6524ZM57.4649 91.637C59.9608 91.2304 62.4493 90.8714 64.9305 90.6076C67.4191 90.3438 69.9113 90.168 72.3925 90.0581C73.2073 90.0215 73.8635 90.6479 73.8635 91.4319C73.8635 91.626 73.8709 91.8239 73.8672 92.0217C73.8525 92.7983 73.1778 93.4504 72.363 93.4834C69.8634 93.586 67.3749 93.7545 64.8789 93.9926C62.383 94.2344 59.8907 94.5348 57.3911 94.9048C56.5727 95.0257 55.9164 94.5421 55.9312 93.7948C55.9349 93.6189 55.9385 93.4211 55.9422 93.2343C55.9643 92.4906 56.6538 91.7689 57.4649 91.637ZM57.6013 85.596C60.0751 85.1234 62.5563 84.6985 65.0338 84.3907C67.5002 84.083 69.9777 83.8669 72.4478 83.735C73.2589 83.691 73.9188 84.3248 73.9078 85.1088C73.9041 85.3139 73.9041 85.5118 73.9041 85.7059C73.9041 86.4826 73.2257 87.1347 72.411 87.1786C69.9371 87.3032 67.456 87.501 64.9858 87.7868C62.501 88.0725 60.0161 88.4535 57.5386 88.8968C56.7238 89.0433 56.0676 88.5634 56.0897 87.827C56.0934 87.6512 56.0897 87.4644 56.0934 87.2592C56.1044 86.5375 56.7828 85.7535 57.6013 85.596ZM57.734 79.5733C60.2041 79.0201 62.6669 78.5292 65.1296 78.1812C67.585 77.8332 70.0404 77.5804 72.4957 77.4265C73.3031 77.3753 73.9778 78.0054 73.9704 78.7893C73.9668 78.9872 73.9557 79.1813 73.9557 79.3865C73.9557 80.1705 73.2773 80.8262 72.4699 80.8665C70.0035 80.9984 67.5444 81.2475 65.078 81.5736C62.6116 81.8959 60.1341 82.3392 57.6713 82.8484C56.8565 83.017 56.2077 82.5847 56.2261 81.8373C56.2298 81.6615 56.2298 81.4746 56.2335 81.2878C56.2445 80.5551 56.9192 79.7565 57.734 79.5733ZM57.863 73.5506C60.3258 72.9242 62.7775 72.3893 65.2255 71.9827C67.6735 71.576 70.1067 71.2903 72.5547 71.1181C73.3621 71.0631 74.011 71.6859 74.0073 72.4699C74.0073 72.6677 74.0036 72.8619 73.9999 73.0597C73.9889 73.8437 73.3363 74.5104 72.5252 74.5617C70.0809 74.7083 67.6255 74.9794 65.1739 75.3567C62.7185 75.734 60.2557 76.2396 57.8004 76.8294C56.9819 77.0272 56.3441 76.6133 56.3551 75.8696C56.3588 75.6827 56.3625 75.5069 56.3662 75.3201C56.392 74.5617 57.0483 73.7594 57.863 73.5506ZM57.9921 67.5169C60.4437 66.8135 62.8807 66.2091 65.3176 65.7621C67.7435 65.3189 70.1805 65.0038 72.6137 64.8206C73.4101 64.762 74.0479 65.3811 74.0479 66.1541C74.0479 66.3593 74.0552 66.5571 74.0516 66.7513C74.0405 67.5279 73.3879 68.1983 72.5916 68.2533C70.1583 68.4218 67.7103 68.7185 65.2697 69.1472C62.8291 69.5721 60.3774 70.1583 57.9257 70.814C57.122 71.0302 56.4842 70.6272 56.4952 69.8908C56.4989 69.704 56.4952 69.5172 56.4989 69.323C56.5247 68.5867 57.192 67.7477 57.9921 67.5169ZM58.1358 61.4942C57.3358 61.747 56.6685 62.6043 56.6575 63.3479C56.6538 63.5238 56.6538 63.7106 56.6501 63.9084C56.628 64.6448 57.2547 65.0075 58.0621 64.762C60.4954 64.0183 62.9323 63.4029 65.3656 62.9266C67.7878 62.4504 70.221 62.1097 72.6469 61.9265C73.4395 61.8679 74.0958 61.2121 74.0958 60.4245C74.0958 60.2303 74.0995 60.0325 74.0995 59.8347C74.1069 59.0507 73.458 58.4353 72.6653 58.5012C70.2542 58.699 67.832 59.0361 65.4172 59.5416C62.9913 60.0508 60.5691 60.7212 58.1358 61.4942ZM58.2649 55.4715C60.6871 54.6289 63.0945 53.8853 65.5093 53.3431C67.9094 52.8045 70.3206 52.4089 72.7133 52.1964C73.4985 52.1268 74.1695 52.7349 74.1511 53.5226C74.1474 53.7167 74.14 53.9146 74.14 54.1124C74.1364 54.9074 73.4912 55.5741 72.6948 55.6437C70.2911 55.8489 67.8726 56.2299 65.4614 56.7427C63.0392 57.2593 60.6207 57.9407 58.2059 58.743C57.4022 59.0104 56.7533 58.6844 56.7902 57.9297C56.7976 57.7429 56.7976 57.556 56.8012 57.3692C56.8123 56.6219 57.4649 55.75 58.2649 55.4715ZM58.3939 49.4195C57.5939 49.7236 56.9561 50.6468 56.934 51.3831C56.9266 51.5883 56.9303 51.7641 56.9266 51.951C56.9045 52.6873 57.5386 53.017 58.3349 52.7276C60.7424 51.8521 63.1609 51.101 65.5646 50.5296C67.9574 49.9617 70.3648 49.5624 72.7612 49.3316C73.5465 49.2583 74.1843 48.5769 74.1953 47.8003C74.199 47.6025 74.1917 47.4083 74.1953 47.2031C74.2064 46.4265 73.5612 45.811 72.7833 45.888C70.398 46.1261 68.0016 46.5291 65.6163 47.1152C63.2051 47.705 60.7977 48.5 58.3939 49.4195ZM58.5303 43.4005C60.923 42.415 63.312 41.5578 65.7047 40.9203C68.0827 40.2829 70.4643 39.8433 72.8423 39.5759C73.6202 39.4879 74.2506 40.1071 74.2506 40.891C74.2506 41.0852 74.2396 41.283 74.2396 41.4809C74.2396 42.2648 73.5907 42.9279 72.8091 43.0122C70.4275 43.2649 68.0274 43.6972 65.6494 44.3054C63.2567 44.9208 60.8567 45.7341 58.4677 46.6793C57.6639 46.998 57.0409 46.7086 57.063 45.9649C57.0667 45.7891 57.0667 45.6022 57.0704 45.4044C57.0888 44.6644 57.734 43.7265 58.5303 43.4005ZM58.6557 37.3778C57.8593 37.7331 57.2326 38.682 57.2178 39.4183C57.2142 39.6052 57.2142 39.792 57.2068 39.9679C57.1773 40.7335 57.7967 41.0046 58.5893 40.6639C60.9747 39.6418 63.3563 38.7662 65.7379 38.1032C68.1085 37.4437 70.4828 36.9748 72.8534 36.7001C73.6349 36.6085 74.2764 35.9527 74.2875 35.1687C74.2912 34.9709 74.2875 34.7768 74.2875 34.5789C74.2875 33.784 73.6608 33.1648 72.8865 33.2564C70.5233 33.5312 68.1528 34.0184 65.7895 34.7071C63.4116 35.4032 61.0373 36.3117 58.6557 37.3778ZM58.781 31.3917C61.1516 30.2561 63.5148 29.2779 65.8817 28.5489C68.2339 27.8199 70.5897 27.3107 72.9382 27.0103C73.705 26.9113 74.3317 27.5415 74.3317 28.3144C74.3317 28.5196 74.3317 28.7174 74.3317 28.9116C74.3281 29.6956 73.6792 30.3586 72.9123 30.4502C70.5528 30.7396 68.1859 31.2342 65.8338 31.9412C63.4632 32.6556 61.0963 33.6008 58.7257 34.6888C57.9294 35.0552 57.3174 34.8061 57.3506 34.0624C57.3579 33.8865 57.3579 33.6997 57.3579 33.4945C57.3579 32.7582 57.9994 31.7691 58.781 31.3917ZM78.0849 121.586C80.6324 121.593 83.1836 121.619 85.7349 121.644C88.2824 121.67 90.8373 121.699 93.3923 121.743C94.2291 121.758 94.9149 122.37 94.9259 123.117C94.9296 123.304 94.9333 123.491 94.937 123.677C94.9481 124.414 94.266 125 93.4291 125C90.8668 125 88.3082 125 85.7496 125C83.191 125 80.6324 125 78.0701 125C77.2295 125 76.5512 124.381 76.5512 123.608C76.5512 123.41 76.5512 123.216 76.5512 123.011C76.5438 122.223 77.248 121.582 78.0849 121.586ZM78.107 115.288C80.6435 115.325 83.18 115.372 85.7201 115.446C88.2603 115.519 90.7968 115.618 93.337 115.731C94.1665 115.768 94.8596 116.409 94.8633 117.153C94.8633 117.329 94.8706 117.516 94.8706 117.702C94.8817 118.446 94.196 119.021 93.3738 118.996C90.83 118.922 88.2824 118.864 85.7386 118.82C83.1947 118.776 80.6508 118.728 78.107 118.714C77.2701 118.71 76.5807 118.065 76.5807 117.292C76.5807 117.094 76.577 116.9 76.5807 116.702C76.588 115.915 77.2738 115.274 78.107 115.288ZM78.1291 108.969C80.6472 109.027 83.1799 109.13 85.7017 109.244C88.2197 109.357 90.7525 109.511 93.2706 109.705C94.1038 109.767 94.808 110.441 94.8117 111.178C94.8117 111.372 94.8043 111.552 94.808 111.738C94.819 112.486 94.137 113.032 93.3148 112.984C90.7857 112.845 88.2492 112.709 85.7201 112.621C83.1873 112.533 80.6545 112.453 78.1291 112.416C77.2996 112.405 76.6138 111.76 76.6249 110.973C76.6286 110.775 76.6249 110.581 76.6249 110.383C76.6175 109.599 77.2996 108.95 78.1291 108.969ZM78.1623 102.671C80.6619 102.752 83.1763 102.876 85.6833 103.045C88.1939 103.21 90.7046 103.433 93.2227 103.682C94.0448 103.763 94.7342 104.466 94.749 105.203C94.7527 105.401 94.7563 105.584 94.7563 105.771C94.76 106.507 94.0743 107.049 93.2595 106.976C90.7378 106.752 88.2124 106.558 85.698 106.415C83.1836 106.272 80.6656 106.177 78.1512 106.111C77.318 106.089 76.6433 105.434 76.6507 104.65C76.6507 104.452 76.6507 104.258 76.6507 104.052C76.6507 103.279 77.3365 102.646 78.1623 102.671ZM78.1844 96.3739C80.684 96.4618 83.1726 96.634 85.6722 96.8465C88.1644 97.0553 90.6641 97.3337 93.1711 97.6707C94.0043 97.7843 94.6716 98.495 94.6863 99.2387C94.69 99.4145 94.6974 99.6124 94.6974 99.7992C94.701 100.543 94.0301 101.052 93.2116 100.957C90.7009 100.66 88.1939 100.393 85.6869 100.213C83.18 100.034 80.673 99.8908 78.1697 99.8102C77.3438 99.7845 76.6802 99.1214 76.6802 98.3375C76.6802 98.1396 76.6728 97.9455 76.6765 97.7477C76.6876 96.9637 77.3659 96.3482 78.1844 96.3739ZM78.2176 90.0801C80.6951 90.1973 83.1873 90.3731 85.6648 90.6406C88.1497 90.9043 90.6309 91.2524 93.1121 91.67C93.9379 91.8092 94.6052 92.5346 94.6162 93.2783C94.6199 93.4541 94.6199 93.6409 94.6236 93.8388C94.6384 94.5751 93.9674 95.0477 93.1489 94.9268C90.6493 94.5568 88.1497 94.2491 85.6611 94.0146C83.1726 93.7801 80.6803 93.6043 78.1844 93.4944C77.3659 93.4578 76.706 92.8167 76.706 92.0437C76.706 91.8458 76.6986 91.6517 76.7023 91.4539C76.7281 90.6662 77.4028 90.0398 78.2176 90.0801ZM78.2397 83.7606C80.7061 83.8998 83.1726 84.1306 85.6427 84.4384C88.1165 84.7461 90.5903 85.1637 93.0604 85.6436C93.8715 85.8012 94.5425 86.5742 94.5462 87.3032C94.5462 87.4973 94.561 87.6842 94.561 87.8637C94.572 88.6 93.9047 89.069 93.101 88.9224C90.6198 88.4791 88.1349 88.1128 85.6501 87.8234C83.18 87.534 80.7025 87.3398 78.225 87.2043C77.4102 87.1603 76.7429 86.5082 76.7466 85.7316C76.7466 85.5337 76.765 85.3396 76.7613 85.1344C76.7576 84.3505 77.4323 83.7167 78.2397 83.7606ZM78.2581 77.4632C80.7135 77.6244 83.1726 77.8662 85.6243 78.2288C88.0833 78.5915 90.5424 79.0714 92.9978 79.6319C93.8089 79.8151 94.4983 80.6027 94.4983 81.3501C94.4983 81.5369 94.4946 81.7128 94.4983 81.8996C94.5093 82.636 93.8383 83.0792 93.0383 82.9107C90.5682 82.3942 88.0944 81.9509 85.6316 81.6175C83.1726 81.2841 80.7025 81.057 78.2545 80.9032C77.4471 80.8519 76.7761 80.1961 76.7945 79.4231C76.7982 79.218 76.7908 79.0201 76.7908 78.826C76.7908 78.0347 77.4507 77.4119 78.2581 77.4632ZM78.2839 71.1657C80.7172 71.3489 83.1689 71.631 85.6095 72.0376C88.0538 72.4443 90.5018 72.9938 92.9572 73.6276C93.7683 73.8364 94.4209 74.6387 94.4356 75.3823C94.4393 75.5692 94.4356 75.756 94.4356 75.9319C94.4393 76.6755 93.7941 77.0968 92.9941 76.9027C90.5313 76.3092 88.0723 75.8 85.6206 75.4116C83.1726 75.0233 80.7246 74.7742 78.2803 74.5984C77.4765 74.5397 76.8277 73.884 76.8277 73.0964C76.8277 72.8985 76.8203 72.7044 76.824 72.5065C76.8277 71.7372 77.4729 71.1071 78.2839 71.1657ZM78.2987 64.8609C77.5024 64.795 76.8535 65.4214 76.8461 66.1944C76.8461 66.3996 76.8461 66.5974 76.8461 66.7916C76.8498 67.5646 77.4913 68.2276 78.295 68.2936C80.7246 68.4841 83.1615 68.7955 85.5985 69.2241C88.0391 69.6564 90.4834 70.2242 92.9351 70.891C93.7314 71.1071 94.3803 70.7151 94.3766 69.9678C94.3766 69.7919 94.3692 69.6051 94.3656 69.3999C94.3545 68.6856 93.7056 67.8357 92.8945 67.6049C90.4576 66.9051 88.0207 66.2897 85.5874 65.8281C83.1615 65.3702 80.7283 65.0661 78.2987 64.8609ZM78.3392 58.5525C80.7467 58.7796 83.1615 59.1313 85.5763 59.6405C87.9949 60.1497 90.4097 60.8312 92.8356 61.6115C93.6319 61.8679 94.2918 62.7105 94.3029 63.4468C94.3066 63.6337 94.3066 63.8205 94.3103 64.0074C94.3213 64.7437 93.6724 65.1027 92.8724 64.8609C90.4392 64.1209 88.0022 63.4945 85.5763 63.0182C83.1541 62.542 80.7283 62.2013 78.3098 61.9888C77.5208 61.9192 76.8793 61.2634 76.8867 60.4795C76.8867 60.2853 76.8867 60.0875 76.8867 59.8896C76.8867 59.091 77.5503 58.4792 78.3392 58.5525ZM78.3651 52.255C77.5761 52.1744 76.9088 52.7862 76.9125 53.5702C76.9125 53.7644 76.9125 53.9622 76.9125 54.1673C76.9051 54.9513 77.554 55.5998 78.3466 55.6767C80.7504 55.9111 83.1615 56.2958 85.5726 56.8233C87.9875 57.3545 90.3986 58.0579 92.8171 58.8639C93.6098 59.1277 94.2586 58.7943 94.2476 58.0506C94.2439 57.8638 94.2402 57.6696 94.2402 57.4901C94.2402 56.7428 93.5803 55.8782 92.7839 55.5961C90.3728 54.7388 87.969 54.0025 85.5579 53.4493C83.1578 52.8998 80.7467 52.4968 78.3651 52.255ZM78.3761 45.9503C80.7614 46.2177 83.1541 46.65 85.5321 47.2434C87.9285 47.8443 90.3249 48.6392 92.7286 49.5697C93.525 49.8775 94.1591 50.797 94.1665 51.5223C94.1665 51.7202 94.1775 51.9033 94.1775 52.0902C94.1886 52.8155 93.5582 53.1489 92.7692 52.8558C90.3581 51.962 87.958 51.1963 85.5468 50.6211C83.1615 50.0496 80.7578 49.6613 78.3614 49.3939C77.5724 49.306 76.9383 48.6392 76.9383 47.8626C76.9383 47.6647 76.9309 47.4706 76.9346 47.2654C76.9457 46.4888 77.5982 45.8623 78.3761 45.9503ZM78.3909 39.6528C77.6166 39.5575 76.9678 40.173 76.9604 40.957C76.9604 41.1548 76.9641 41.349 76.9641 41.5468C76.9641 42.3198 77.5982 42.9865 78.3761 43.0781C80.7651 43.3529 83.1431 43.8071 85.5247 44.4299C87.9137 45.06 90.3028 45.8916 92.7028 46.8515C93.4844 47.1665 94.1222 46.8624 94.1075 46.1371C94.1038 45.9393 94.1149 45.7524 94.1112 45.5766C94.0964 44.8219 93.4586 43.9061 92.6733 43.5763C90.2843 42.5652 87.8916 41.7153 85.51 41.0559C83.1431 40.4001 80.7614 39.9385 78.3909 39.6528ZM78.4093 33.3553C80.7688 33.6741 83.1357 34.1613 85.4915 34.8573C87.8621 35.5571 90.2401 36.4949 92.6143 37.5646C93.3996 37.9163 94.0264 38.8615 94.0374 39.6052C94.0411 39.792 94.0448 39.9678 94.0448 40.1547C94.0522 40.9094 93.4218 41.1878 92.6438 40.8507C90.2585 39.814 87.8806 38.9201 85.4989 38.2424C83.1357 37.5683 80.7688 37.092 78.4019 36.7916C77.6277 36.6927 76.9899 36.0187 76.9973 35.231C76.9973 35.0369 76.9899 34.839 76.9936 34.6412C77.0083 33.8536 77.6388 33.2528 78.4093 33.3553ZM78.4388 27.0762C77.6719 26.9626 77.0415 27.5781 77.0415 28.3511C77.0415 28.5562 77.0304 28.7541 77.0268 28.9482C77.0083 29.7322 77.6572 30.4099 78.4277 30.5162C80.7762 30.8495 83.1357 31.3478 85.4915 32.0658C87.8547 32.7875 90.218 33.7547 92.5885 34.872C93.3664 35.2383 94.0079 34.9709 93.9932 34.2236C93.9895 34.0367 93.9858 33.8499 93.9821 33.6631C93.9711 32.9267 93.3406 31.9596 92.5701 31.5822C90.2069 30.4282 87.8437 29.4464 85.4879 28.6881C83.1357 27.9444 80.7799 27.4242 78.4388 27.0762ZM127.926 122.571C126.234 122.465 124.538 122.388 122.846 122.34C121.157 122.296 119.461 122.282 117.769 122.274C117.216 122.274 116.759 122.784 116.759 123.403C116.759 123.56 116.759 123.721 116.759 123.875C116.759 124.494 117.216 124.996 117.776 124.996C119.487 124.996 121.198 124.996 122.905 124.996C124.615 124.996 126.326 124.996 128.033 124.996C128.593 124.996 129.025 124.557 128.999 124.022C128.992 123.89 128.984 123.751 128.977 123.615C128.955 123.08 128.479 122.604 127.926 122.571ZM127.72 118.105C126.053 117.809 124.39 117.578 122.731 117.453C121.076 117.329 119.413 117.288 117.751 117.277C117.209 117.274 116.763 117.79 116.763 118.409C116.763 118.567 116.763 118.725 116.763 118.882C116.763 119.501 117.212 119.996 117.765 119.999C119.443 120.003 121.124 120.029 122.798 120.113C124.475 120.197 126.156 120.344 127.834 120.534C128.387 120.597 128.811 120.227 128.785 119.692C128.778 119.556 128.77 119.421 128.763 119.281C128.733 118.743 128.265 118.201 127.72 118.105ZM127.513 113.632C125.88 113.145 124.25 112.768 122.613 112.555C120.995 112.346 119.362 112.284 117.732 112.27C117.198 112.262 116.763 112.786 116.763 113.405C116.763 113.563 116.763 113.724 116.763 113.878C116.763 114.497 117.205 114.988 117.743 114.991C119.388 115.002 121.036 115.054 122.676 115.222C124.324 115.391 125.976 115.688 127.624 116.065C128.169 116.189 128.586 115.885 128.56 115.35C128.553 115.219 128.545 115.079 128.538 114.944C128.512 114.405 128.055 113.794 127.513 113.632ZM127.303 109.167C125.703 108.493 124.103 107.965 122.495 107.668C120.914 107.375 119.306 107.295 117.714 107.273C117.19 107.265 116.759 107.793 116.759 108.408C116.759 108.566 116.759 108.727 116.759 108.881C116.759 109.5 117.194 109.984 117.721 109.991C119.332 110.009 120.954 110.082 122.558 110.332C124.177 110.581 125.799 111.028 127.414 111.599C127.956 111.79 128.361 111.555 128.335 111.017C128.328 110.881 128.321 110.746 128.313 110.606C128.291 110.068 127.845 109.394 127.303 109.167ZM127.097 104.694C127.635 104.987 128.07 105.73 128.096 106.269C128.103 106.404 128.11 106.544 128.118 106.675C128.144 107.214 127.749 107.383 127.211 107.126C125.626 106.368 124.04 105.774 122.448 105.437C120.884 105.108 119.292 105.009 117.71 104.983C117.19 104.976 116.766 104.496 116.766 103.88C116.766 103.726 116.766 103.565 116.766 103.408C116.766 102.789 117.19 102.254 117.703 102.265C119.266 102.294 120.844 102.404 122.389 102.774C123.963 103.155 125.53 103.833 127.097 104.694ZM126.89 100.228C125.356 99.1801 123.826 98.3558 122.267 97.8869C120.763 97.4326 119.211 97.3007 117.681 97.2641C117.175 97.2531 116.763 97.7916 116.763 98.4107C116.763 98.5683 116.763 98.7295 116.763 98.8833C116.763 99.5024 117.179 99.9714 117.688 99.9824C119.236 100.012 120.803 100.14 122.33 100.55C123.9 100.971 125.452 101.715 127.004 102.66C127.539 102.986 127.922 102.88 127.897 102.342C127.889 102.206 127.882 102.071 127.874 101.935C127.845 101.393 127.425 100.59 126.89 100.228ZM126.684 95.7584C127.211 96.1907 127.624 97.0589 127.653 97.5938C127.661 97.733 127.668 97.8686 127.675 98.0041C127.701 98.539 127.329 98.5829 126.798 98.1873C125.279 97.0553 123.764 96.1614 122.215 95.6522C120.733 95.1613 119.188 95.0147 117.673 94.9781C117.175 94.9671 116.766 94.5018 116.766 93.8827C116.766 93.7289 116.766 93.5713 116.766 93.4101C116.766 92.791 117.172 92.2415 117.662 92.2562C119.163 92.3001 120.693 92.465 122.153 92.9962C123.686 93.553 125.179 94.5238 126.684 95.7584ZM126.477 91.289C125.006 89.8749 123.55 88.7502 122.035 88.0981C120.615 87.49 119.111 87.2959 117.644 87.2482C117.161 87.2336 116.766 87.7904 116.766 88.4095C116.766 88.5671 116.766 88.7246 116.766 88.8821C116.766 89.5012 117.168 89.9592 117.655 89.9738C119.141 90.0178 120.659 90.1973 122.101 90.7615C123.631 91.3623 125.109 92.4064 126.595 93.7179C127.122 94.1831 127.484 94.2014 127.458 93.6666C127.45 93.531 127.443 93.3955 127.436 93.2599C127.403 92.7214 126.997 91.7909 126.477 91.289ZM24.0739 122.571C25.7662 122.465 27.4621 122.388 29.1543 122.34C30.8428 122.296 32.5387 122.282 34.231 122.274C34.784 122.274 35.2411 122.784 35.2411 123.403C35.2411 123.56 35.2411 123.721 35.2411 123.875C35.2411 124.494 34.784 124.996 34.2236 124.996C32.5129 124.996 30.8023 124.996 29.0953 124.996C27.3847 124.996 25.674 124.996 23.967 124.996C23.4067 124.996 22.9753 124.557 23.0011 124.022C23.0085 123.89 23.0159 123.751 23.0232 123.615C23.0454 123.08 23.5209 122.604 24.0739 122.571ZM24.2804 118.105C25.9468 117.809 27.6095 117.578 29.2686 117.453C30.9239 117.329 32.5867 117.288 34.2494 117.277C34.7913 117.274 35.2374 117.79 35.2374 118.409C35.2374 118.567 35.2374 118.725 35.2374 118.882C35.2374 119.501 34.7876 119.996 34.2346 119.999C32.5572 120.003 30.876 120.029 29.2022 120.113C27.5247 120.197 25.8436 120.344 24.1661 120.534C23.6131 120.597 23.1891 120.227 23.2149 119.692C23.2223 119.556 23.2297 119.421 23.2371 119.281C23.2666 118.743 23.7348 118.201 24.2804 118.105ZM24.4869 113.632C26.1201 113.145 27.7496 112.768 29.3866 112.555C31.005 112.346 32.6383 112.284 34.2678 112.27C34.8024 112.262 35.2374 112.786 35.2374 113.405C35.2374 113.563 35.2374 113.724 35.2374 113.878C35.2374 114.497 34.795 114.988 34.2568 114.991C32.6125 115.002 30.9645 115.054 29.3239 115.222C27.6759 115.391 26.0242 115.688 24.3763 116.065C23.8306 116.189 23.414 115.885 23.4398 115.35C23.4472 115.219 23.4546 115.079 23.4619 114.944C23.4878 114.405 23.9449 113.794 24.4869 113.632ZM24.697 109.167C26.2971 108.493 27.8971 107.965 29.5045 107.668C31.0862 107.375 32.6936 107.295 34.2863 107.273C34.8098 107.265 35.2411 107.793 35.2411 108.408C35.2411 108.566 35.2411 108.727 35.2411 108.881C35.2411 109.5 34.8061 109.984 34.2789 109.991C32.6678 110.009 31.0456 110.082 29.4419 110.332C27.8234 110.581 26.2012 111.028 24.5864 111.599C24.0445 111.79 23.6389 111.555 23.6647 111.017C23.6721 110.881 23.6795 110.746 23.6868 110.606C23.709 110.068 24.1587 109.394 24.697 109.167ZM24.9035 104.694C24.3652 104.987 23.9302 105.73 23.9044 106.269C23.897 106.404 23.8896 106.544 23.8822 106.675C23.8564 107.214 24.2509 107.383 24.7892 107.126C26.3745 106.368 27.9598 105.774 29.5525 105.437C31.1156 105.108 32.7083 105.009 34.2899 104.983C34.8098 104.976 35.2337 104.496 35.2337 103.88C35.2337 103.726 35.2337 103.565 35.2337 103.408C35.2337 102.789 34.8098 102.254 34.2973 102.265C32.7341 102.294 31.1562 102.404 29.6115 102.774C28.0372 103.155 26.4703 103.833 24.9035 104.694ZM25.1099 100.228C26.6436 99.1801 28.1736 98.3558 29.7331 97.8869C31.2373 97.4326 32.7894 97.3007 34.3194 97.2641C34.8245 97.2531 35.2374 97.7916 35.2374 98.4107C35.2374 98.5683 35.2374 98.7295 35.2374 98.8833C35.2374 99.5024 34.8208 99.9714 34.3121 99.9824C32.7636 100.012 31.1968 100.14 29.6704 100.55C28.0999 100.971 26.5478 101.715 24.9956 102.66C24.4611 102.986 24.0776 102.88 24.1034 102.342C24.1108 102.206 24.1182 102.071 24.1256 101.935C24.1551 101.393 24.5753 100.59 25.1099 100.228ZM25.3201 95.7584C24.7929 96.1907 24.3799 97.0589 24.3505 97.5938C24.3431 97.733 24.3357 97.8686 24.3283 98.0041C24.3025 98.539 24.6749 98.5829 25.2058 98.1873C26.7247 97.0553 28.24 96.1614 29.7884 95.6522C31.2705 95.1613 32.8152 95.0147 34.3305 94.9781C34.8282 94.9671 35.2374 94.5018 35.2374 93.8827C35.2374 93.7289 35.2374 93.5713 35.2374 93.4101C35.2374 92.791 34.8319 92.2415 34.3416 92.2562C32.841 92.3001 31.311 92.465 29.8511 92.9962C28.3137 93.553 26.8206 94.5238 25.3201 95.7584ZM25.5228 91.289C26.9939 89.8749 28.4501 88.7502 29.9654 88.0981C31.3848 87.49 32.889 87.2959 34.3563 87.2482C34.8393 87.2336 35.2337 87.7904 35.2337 88.4095C35.2337 88.5671 35.2337 88.7246 35.2337 88.8821C35.2337 89.5012 34.8319 89.9592 34.3452 89.9738C32.8595 90.0178 31.3405 90.1973 29.899 90.7615C28.369 91.3623 26.8906 92.4064 25.4049 93.7179C24.8777 94.1831 24.5164 94.2014 24.5422 93.6666C24.5495 93.531 24.5569 93.3955 24.5643 93.2599C24.5975 92.7214 25.003 91.7909 25.5228 91.289ZM112.692 122.139C110.517 122.066 108.342 121.996 106.167 121.952C103.992 121.908 101.816 121.89 99.6413 121.879C98.9297 121.875 98.3473 122.458 98.3473 123.165C98.3473 123.351 98.3473 123.531 98.3473 123.707C98.3473 124.418 98.9297 124.993 99.6413 124.993C101.816 124.993 103.995 124.993 106.167 124.993C108.342 124.993 110.517 124.993 112.692 124.993C113.404 124.993 113.986 124.476 113.986 123.839C113.986 123.681 113.986 123.513 113.986 123.348C113.986 122.714 113.404 122.164 112.692 122.139ZM112.692 116.878C110.517 116.658 108.342 116.475 106.167 116.354C103.995 116.233 101.816 116.178 99.6413 116.142C98.9297 116.131 98.3473 116.706 98.3473 117.424C98.3473 117.604 98.3473 117.783 98.3473 117.963C98.3473 118.681 98.9297 119.263 99.6413 119.27C101.816 119.296 103.995 119.325 106.167 119.402C108.342 119.483 110.517 119.596 112.692 119.739C113.404 119.787 113.986 119.314 113.986 118.67C113.986 118.512 113.986 118.344 113.986 118.186C113.986 117.541 113.404 116.951 112.692 116.878ZM112.692 111.61C110.521 111.247 108.342 110.951 106.167 110.753C103.995 110.559 101.816 110.456 99.6413 110.401C98.9297 110.383 98.3473 110.958 98.3473 111.676C98.3473 111.856 98.3473 112.035 98.3473 112.215C98.3473 112.925 98.9297 113.511 99.6413 113.53C101.816 113.581 103.995 113.647 106.167 113.801C108.342 113.958 110.521 114.193 112.692 114.479C113.404 114.57 113.986 114.142 113.986 113.504C113.986 113.343 113.986 113.178 113.986 113.021C113.986 112.376 113.404 111.731 112.692 111.61ZM112.692 106.346C110.521 105.84 108.346 105.423 106.167 105.151C103.999 104.88 101.816 104.745 99.6413 104.661C98.9297 104.631 98.3473 105.217 98.3473 105.928C98.3473 106.115 98.3473 106.294 98.3473 106.47C98.3473 107.181 98.9297 107.767 99.6413 107.789C101.816 107.859 103.999 107.969 106.167 108.199C108.346 108.43 110.521 108.778 112.692 109.207C113.408 109.35 113.986 108.969 113.986 108.331C113.986 108.17 113.986 108.005 113.986 107.84C113.986 107.207 113.408 106.511 112.692 106.346ZM112.692 101.085C110.525 100.437 108.349 99.8981 106.167 99.5464C104.003 99.1947 101.816 99.0409 99.6413 98.931C98.9297 98.8943 98.3473 99.4768 98.3473 100.184C98.3473 100.371 98.3473 100.55 98.3473 100.726C98.3473 101.437 98.9334 102.023 99.6413 102.052C101.816 102.147 104.003 102.29 106.167 102.594C108.349 102.906 110.525 103.378 112.692 103.946C113.408 104.133 113.986 103.8 113.986 103.162C113.986 103.005 113.986 102.836 113.986 102.671C113.986 102.038 113.408 101.298 112.692 101.085ZM112.692 95.817C113.411 96.0771 113.986 96.8721 113.986 97.5095C113.986 97.6707 113.986 97.8356 113.986 97.9931C113.986 98.6379 113.411 98.9163 112.692 98.6818C110.525 97.9748 108.353 97.3776 106.167 96.9893C104.003 96.6083 101.816 96.4215 99.6413 96.3079C98.9297 96.2713 98.3473 95.6925 98.3473 94.9744C98.3473 94.7949 98.3473 94.6154 98.3473 94.4359C98.3473 93.7252 98.9334 93.1464 99.6413 93.1903C101.816 93.3222 104.006 93.52 106.167 93.945C108.353 94.3773 110.525 95.0331 112.692 95.817ZM112.692 90.5563C110.528 89.6331 108.357 88.8565 106.167 88.3473C104.006 87.8454 101.816 87.6072 99.6413 87.4534C98.9297 87.4021 98.3473 87.9773 98.3473 88.6953C98.3473 88.8748 98.3473 89.0543 98.3473 89.2338C98.3473 89.9445 98.9334 90.527 99.6413 90.5746C101.816 90.7138 104.006 90.941 106.167 91.3989C108.357 91.8642 110.528 92.5785 112.692 93.4285C113.411 93.7105 113.986 93.4688 113.986 92.8313C113.986 92.6701 113.986 92.5053 113.986 92.3477C113.986 91.6993 113.411 90.864 112.692 90.5563ZM112.692 85.2883C113.419 85.6473 113.986 86.5302 113.986 87.164C113.986 87.3288 113.986 87.4937 113.986 87.6549C113.986 88.2923 113.419 88.4828 112.692 88.1531C110.532 87.164 108.36 86.3324 106.167 85.7902C104.01 85.259 101.816 84.9879 99.6413 84.8267C98.9297 84.7754 98.3473 84.1893 98.3473 83.4785C98.3473 83.299 98.3473 83.1195 98.3473 82.9364C98.3473 82.2256 98.9334 81.6468 99.6413 81.7018C101.82 81.8776 104.014 82.1634 106.167 82.7385C108.36 83.3283 110.532 84.2222 112.692 85.2883ZM112.692 80.0239C110.536 78.8186 108.372 77.8039 106.167 77.1371C104.017 76.4887 101.816 76.17 99.6413 75.9685C98.9297 75.9026 98.3473 76.485 98.3473 77.1957C98.3473 77.3826 98.3473 77.5621 98.3473 77.7379C98.3473 78.4486 98.9334 79.0385 99.6413 79.0971C101.82 79.2802 104.017 79.5733 106.167 80.1851C108.368 80.8079 110.536 81.7604 112.692 82.8924C113.419 83.2734 113.986 83.1232 113.986 82.4894C113.986 82.3246 113.986 82.1634 113.986 81.9985C113.986 81.3647 113.422 80.4306 112.692 80.0239ZM112.692 74.7632C113.426 75.2211 113.986 76.1956 113.986 76.8331C113.986 76.9943 113.986 77.1591 113.986 77.3166C113.986 77.9614 113.422 78.0603 112.692 77.628C110.536 76.3532 108.372 75.2871 106.167 74.5837C104.021 73.8987 101.816 73.5653 99.6413 73.3565C98.9297 73.2869 98.3473 72.708 98.3473 71.99C98.3473 71.8105 98.3473 71.631 98.3473 71.4515C98.3473 70.7408 98.9334 70.1583 99.6413 70.2315C101.82 70.4514 104.025 70.8177 106.167 71.5394C108.375 72.2831 110.539 73.4187 112.692 74.7632ZM112.692 69.5025C110.539 68.0188 108.383 66.7659 106.167 65.9417C104.029 65.1467 101.82 64.74 99.6413 64.4946C98.9334 64.414 98.3473 64.9928 98.3473 65.7072C98.3473 65.8867 98.3473 66.0662 98.3473 66.2457C98.3473 66.9638 98.9334 67.5426 99.6413 67.6195C101.82 67.854 104.029 68.2276 106.167 68.986C108.379 69.7699 110.539 70.9532 112.692 72.3637C113.426 72.8436 113.986 72.796 113.986 72.1512C113.986 71.9863 113.986 71.8251 113.986 71.6676C113.986 71.0228 113.426 70.0081 112.692 69.5025ZM39.3076 116.878C41.4791 116.658 43.658 116.475 45.8332 116.354C48.0047 116.233 50.1835 116.178 52.3587 116.142C53.0702 116.131 53.6528 116.706 53.6528 117.424C53.6528 117.604 53.6528 117.783 53.6528 117.963C53.6528 118.681 53.0702 119.263 52.3587 119.27C50.1835 119.296 48.0047 119.325 45.8332 119.402C43.658 119.483 41.4791 119.596 39.3076 119.739C38.5961 119.787 38.0136 119.314 38.0136 118.67C38.0136 118.512 38.0136 118.344 38.0136 118.186C38.0172 117.541 38.5961 116.951 39.3076 116.878ZM39.3076 111.61C41.4791 111.247 43.658 110.951 45.8332 110.753C48.0047 110.559 50.1835 110.456 52.3587 110.401C53.0702 110.383 53.6528 110.958 53.6528 111.676C53.6528 111.856 53.6528 112.035 53.6528 112.215C53.6528 112.925 53.0702 113.511 52.3587 113.53C50.1835 113.581 48.0047 113.647 45.8332 113.801C43.658 113.958 41.4791 114.193 39.3076 114.479C38.5961 114.57 38.0136 114.142 38.0136 113.504C38.0136 113.343 38.0136 113.178 38.0136 113.021C38.0172 112.376 38.5961 111.731 39.3076 111.61ZM39.3076 106.346C41.4791 105.84 43.6543 105.423 45.8332 105.151C48.001 104.88 50.1835 104.745 52.3587 104.661C53.0702 104.631 53.6528 105.217 53.6528 105.928C53.6528 106.115 53.6528 106.294 53.6528 106.47C53.6528 107.181 53.0702 107.767 52.3587 107.789C50.1835 107.859 48.001 107.969 45.8332 108.199C43.6543 108.43 41.4791 108.778 39.3076 109.207C38.5924 109.35 38.0136 108.969 38.0136 108.331C38.0136 108.17 38.0136 108.005 38.0136 107.84C38.0172 107.207 38.5961 106.511 39.3076 106.346ZM39.3076 101.085C41.4754 100.437 43.6506 99.8981 45.8332 99.5464C47.9973 99.1947 50.1835 99.0409 52.3587 98.931C53.0702 98.8943 53.6528 99.4768 53.6528 100.184C53.6528 100.371 53.6528 100.55 53.6528 100.726C53.6528 101.437 53.0702 102.023 52.3587 102.052C50.1835 102.147 47.9973 102.29 45.8332 102.594C43.6506 102.906 41.4754 103.378 39.3076 103.946C38.5924 104.133 38.0136 103.8 38.0136 103.162C38.0136 103.005 38.0136 102.836 38.0136 102.671C38.0172 102.038 38.5924 101.298 39.3076 101.085ZM39.3076 95.817C38.5887 96.0771 38.0136 96.8721 38.0136 97.5095C38.0136 97.6707 38.0136 97.8356 38.0136 97.9931C38.0136 98.6379 38.5887 98.9163 39.3076 98.6818C41.4754 97.9748 43.6469 97.3776 45.8332 96.9893C47.9973 96.6083 50.1835 96.4215 52.3587 96.3079C53.0702 96.2713 53.6528 95.6925 53.6528 94.9744C53.6528 94.7949 53.6528 94.6154 53.6528 94.4359C53.6528 93.7252 53.0666 93.1464 52.3587 93.1903C50.1835 93.3222 47.9936 93.52 45.8332 93.945C43.6469 94.3773 41.4754 95.0331 39.3076 95.817ZM39.3076 90.5563C41.4717 89.6331 43.6432 88.8565 45.8332 88.3473C47.9936 87.8454 50.1835 87.6072 52.3587 87.4534C53.0702 87.4021 53.6528 87.9773 53.6528 88.6953C53.6528 88.8748 53.6528 89.0543 53.6528 89.2338C53.6528 89.9445 53.0666 90.527 52.3587 90.5746C50.1835 90.7138 47.9936 90.941 45.8332 91.3989C43.6432 91.8642 41.4717 92.5785 39.3076 93.4285C38.5887 93.7105 38.0136 93.4688 38.0136 92.8313C38.0136 92.6701 38.0136 92.5053 38.0136 92.3477C38.0172 91.6993 38.5887 90.864 39.3076 90.5563ZM39.3076 85.2883C38.5813 85.6473 38.0136 86.5302 38.0136 87.164C38.0136 87.3288 38.0136 87.4937 38.0136 87.6549C38.0136 88.2923 38.5813 88.4828 39.3076 88.1531C41.468 87.164 43.6395 86.3324 45.8332 85.7902C47.9899 85.259 50.1835 84.9879 52.3587 84.8267C53.0702 84.7754 53.6528 84.1893 53.6528 83.4785C53.6528 83.299 53.6528 83.1195 53.6528 82.9364C53.6528 82.2256 53.0666 81.6468 52.3587 81.7018C50.1798 81.8776 47.9862 82.1634 45.8332 82.7385C43.6395 83.3283 41.4717 84.2222 39.3076 85.2883ZM39.3076 80.0239C41.4644 78.8186 43.6285 77.8039 45.8332 77.1371C47.9825 76.4887 50.1835 76.17 52.3587 75.9685C53.0666 75.9026 53.6528 76.485 53.6528 77.1957C53.6528 77.3826 53.6528 77.5621 53.6528 77.7379C53.6528 78.4486 53.0666 79.0385 52.3587 79.0971C50.1798 79.2802 47.9825 79.5733 45.8332 80.1851C43.6322 80.8079 41.4644 81.7604 39.3076 82.8924C38.5813 83.2734 38.0136 83.1232 38.0136 82.4894C38.0136 82.3246 38.0136 82.1634 38.0136 81.9985C38.0172 81.3647 38.5813 80.4306 39.3076 80.0239ZM39.3076 74.7632C38.5739 75.2211 38.0136 76.1956 38.0136 76.8331C38.0136 76.9943 38.0136 77.1591 38.0136 77.3166C38.0136 77.9614 38.5776 78.0603 39.3076 77.628C41.4644 76.3532 43.6285 75.2871 45.8332 74.5837C47.9788 73.8987 50.1835 73.5653 52.3587 73.3565C53.0666 73.2869 53.6528 72.708 53.6528 71.99C53.6528 71.8105 53.6528 71.631 53.6528 71.4515C53.6528 70.7408 53.0666 70.1583 52.3587 70.2315C50.1798 70.4514 47.9752 70.8177 45.8332 71.5394C43.6248 72.2831 41.4644 73.4187 39.3076 74.7632ZM39.3076 69.5025C41.4607 68.0188 43.6174 66.7659 45.8332 65.9417C47.9715 65.1467 50.1798 64.74 52.3587 64.4946C53.0666 64.414 53.6528 64.9928 53.6528 65.7072C53.6528 65.8867 53.6528 66.0662 53.6528 66.2457C53.6528 66.9638 53.0666 67.5426 52.3587 67.6195C50.1798 67.854 47.9715 68.2276 45.8332 68.986C43.6211 69.7699 41.4607 70.9532 39.3076 72.3637C38.5739 72.8436 38.0136 72.796 38.0136 72.1512C38.0136 71.9863 38.0136 71.8251 38.0136 71.6676C38.0172 71.0228 38.5739 70.0081 39.3076 69.5025ZM39.3076 64.2308C38.5703 64.7877 38.0136 65.8574 38.0136 66.4912C38.0136 66.656 38.0136 66.8172 38.0136 66.9821C38.0136 67.6195 38.5703 67.6342 39.3076 67.103C41.457 65.5497 43.6137 64.2528 45.8332 63.3882C47.9678 62.5566 50.1798 62.1427 52.3587 61.8826C53.0666 61.7983 53.6528 61.2122 53.6528 60.5014C53.6528 60.3219 53.6528 60.1424 53.6528 59.9592C53.6528 59.2485 53.0666 58.6624 52.3587 58.7503C50.1798 59.0214 47.9604 59.4574 45.8332 60.3293C43.61 61.2378 41.457 62.6043 39.3076 64.2308ZM112.692 64.2308C113.43 64.7877 113.986 65.8574 113.986 66.4912C113.986 66.656 113.986 66.8172 113.986 66.9821C113.986 67.6195 113.43 67.6342 112.692 67.103C110.543 65.5497 108.386 64.2528 106.167 63.3882C104.032 62.5566 101.82 62.1427 99.6413 61.8826C98.9334 61.7983 98.3473 61.2122 98.3473 60.5014C98.3473 60.3219 98.3473 60.1424 98.3473 59.9592C98.3473 59.2485 98.9334 58.6624 99.6413 58.7503C101.82 59.0214 104.04 59.4574 106.167 60.3293C108.39 61.2378 110.543 62.6043 112.692 64.2308Z" fill="white"/>
</svg>
