<svg width="117" height="50" viewBox="0 0 117 50" fill="none" xmlns="http://www.w3.org/2000/svg">
<g clip-path="url(#clip0_456_5275)">
<path d="M5.5862 7.27273C7.57417 7.27273 9.19086 5.64136 9.19086 3.63636C9.19086 1.63136 7.57417 0 5.5862 0C3.59822 0 1.98153 1.63136 1.98153 3.63636C1.98153 5.64136 3.59822 7.27273 5.5862 7.27273ZM5.5862 1.81818C6.57973 1.81818 7.38853 2.63364 7.38853 3.63636C7.38853 4.63909 6.57973 5.45455 5.5862 5.45455C4.59266 5.45455 3.78386 4.63909 3.78386 3.63636C3.78386 2.63364 4.59266 1.81818 5.5862 1.81818ZM25.5702 8.26477C25.6486 7.76932 26.1008 7.43068 26.6016 7.50977C27.8477 7.71 29.0771 8.0375 30.2556 8.48364C30.7211 8.65977 30.9569 9.18409 30.7828 9.65409C30.6465 10.0186 30.3032 10.2441 29.9389 10.2441C29.8332 10.2441 29.7269 10.225 29.6221 10.1855C28.5571 9.7825 27.4458 9.48636 26.3184 9.30568C25.8273 9.22682 25.4918 8.76068 25.5702 8.26477ZM32.4004 10.4611C32.6653 10.0359 33.2223 9.90841 33.6431 10.173C34.7081 10.8459 35.7122 11.6311 36.6273 12.507C36.9889 12.8525 37.004 13.4277 36.6616 13.792C36.4847 13.9807 36.2461 14.0757 36.0078 14.0757C35.7852 14.0757 35.5624 13.9932 35.3882 13.8261C34.5591 13.0339 33.6501 12.3232 32.6856 11.7141C32.2639 11.4475 32.1364 10.8868 32.4004 10.4611ZM39.0956 15.3898C39.8217 16.4298 40.4465 17.547 40.9516 18.7114C41.1514 19.1711 40.9437 19.707 40.4877 19.9086C40.3699 19.9607 40.2475 19.9855 40.1268 19.9855C39.7791 19.9855 39.4482 19.7818 39.3004 19.4405C38.8437 18.388 38.2787 17.3777 37.6222 16.4366C37.3354 16.0264 37.433 15.4591 37.8396 15.1702C38.2483 14.8807 38.8097 14.9786 39.0956 15.3898ZM18.4305 8.91909C18.3127 8.43137 18.6083 7.93932 19.0915 7.82C20.3122 7.51864 21.5706 7.33977 22.8325 7.28864C23.3173 7.25841 23.7485 7.65795 23.7688 8.16045C23.7891 8.66205 23.4018 9.085 22.9046 9.105C21.7624 9.15159 20.6235 9.31318 19.5207 9.58568C19.4486 9.60341 19.3763 9.61182 19.3051 9.61182C18.8996 9.61205 18.5317 9.33409 18.4305 8.91909ZM12.11 12.3327C11.8126 11.9302 11.8944 11.3607 12.2938 11.0605C13.3049 10.2986 14.3944 9.63727 15.5306 9.09545C15.9838 8.87932 16.518 9.07546 16.7309 9.52818C16.9429 9.98227 16.7512 10.5243 16.3015 10.7386C15.2728 11.2295 14.2872 11.828 13.3709 12.5173C13.2098 12.6393 13.0206 12.698 12.8331 12.698C12.5587 12.698 12.2868 12.5718 12.11 12.3327ZM7.4079 20.763C7.0391 21.8473 6.77776 22.9766 6.63177 24.1189C6.57275 24.577 6.1848 24.9111 5.73849 24.9111C5.69974 24.9111 5.66099 24.9089 5.62134 24.9036C5.1284 24.8393 4.7801 24.3834 4.84341 23.8855C5.0063 22.622 5.29489 21.3734 5.70222 20.1736C5.86421 19.6991 6.37449 19.4443 6.84715 19.6086C7.31824 19.7709 7.56899 20.2882 7.4079 20.763ZM7.27949 16.7093C7.91661 15.6157 8.66548 14.5805 9.50694 13.6323C9.8388 13.2582 10.4072 13.2266 10.7794 13.5614C11.15 13.8961 11.1815 14.4709 10.8497 14.845C10.0884 15.7034 9.40984 16.6405 8.83355 17.63C8.66548 17.9186 8.36449 18.0789 8.05562 18.0789C7.90062 18.0789 7.74314 18.0384 7.59985 17.9536C7.17112 17.6993 7.02761 17.1423 7.27949 16.7093ZM46.1387 25.4545H42.491C42.4419 24.4045 42.3292 23.3582 42.1116 22.3389C42.0077 21.848 41.5263 21.5355 41.0415 21.6411C40.5548 21.7464 40.245 22.2302 40.3498 22.7207C40.5404 23.6152 40.6398 24.533 40.6875 25.4545H34.3057C33.8076 25.4545 33.4045 25.8616 33.4045 26.3636C33.4045 26.8657 33.8076 27.2727 34.3057 27.2727H45.219C44.7448 38.8832 35.2332 48.1818 23.6095 48.1818C11.9858 48.1818 2.47447 38.8832 2.00001 27.2727H16.4628C16.9087 30.8545 19.9402 33.6364 23.6095 33.6364C27.5848 33.6364 30.8188 30.3739 30.8188 26.3636C30.8188 22.3534 27.5848 19.0909 23.6095 19.0909C19.9402 19.0909 16.9084 21.8727 16.4628 25.4545H1.08037C0.582246 25.4545 0.179199 25.8616 0.179199 26.3636C0.179199 39.3968 10.6895 50 23.6095 50C36.5295 50 47.0398 39.3968 47.0398 26.3636C47.0398 25.8616 46.6368 25.4545 46.1387 25.4545Z" fill="#999999"/>
<path d="M65.7269 20.6281C65.7269 20.0622 65.5751 19.6287 65.2715 19.3276C64.9679 19.0265 64.4198 18.7332 63.6273 18.4477C62.8348 18.1622 62.2275 17.8637 61.8056 17.5522C61.3887 17.2355 61.0748 16.8773 60.8638 16.4776C60.658 16.0726 60.555 15.6106 60.555 15.0915C60.555 14.1934 60.851 13.4536 61.4428 12.8722C62.0397 12.2907 62.8193 12 63.7817 12C64.4404 12 65.027 12.1506 65.5417 12.4517C66.0563 12.7476 66.4525 13.1603 66.7304 13.6898C67.0083 14.2193 67.1472 14.8008 67.1472 15.4341H65.7269C65.7269 14.7333 65.5597 14.1908 65.2252 13.8066C64.8907 13.4224 64.4095 13.2304 63.7817 13.2304C63.2105 13.2304 62.7679 13.3913 62.454 13.7132C62.1401 14.035 61.9831 14.4867 61.9831 15.0681C61.9831 15.5457 62.1529 15.9455 62.4926 16.2673C62.8322 16.5892 63.3571 16.8773 64.0673 17.1317C65.1737 17.5003 65.9636 17.9545 66.4371 18.4944C66.9157 19.0343 67.155 19.7404 67.155 20.6125C67.155 21.5314 66.8591 22.2686 66.2673 22.824C65.6755 23.3743 64.8701 23.6495 63.8511 23.6495C63.1976 23.6495 62.5929 23.5067 62.0371 23.2212C61.4865 22.9305 61.0517 22.5255 60.7326 22.0064C60.4187 21.4821 60.2617 20.8825 60.2617 20.2076H61.6821C61.6821 20.9084 61.875 21.4535 62.261 21.8429C62.6521 22.2322 63.1821 22.4269 63.8511 22.4269C64.4738 22.4269 64.9421 22.266 65.256 21.9441C65.57 21.6222 65.7269 21.1836 65.7269 20.6281Z" fill="#999999"/>
<path d="M74.851 19.6861C74.851 21.0203 74.6117 22.0144 74.1331 22.6685C73.6596 23.3227 72.9881 23.6497 72.1184 23.6497C71.2795 23.6497 70.6337 23.3304 70.1808 22.6919V26.7334H68.8223V15.0683H70.0573L70.1268 16.0028C70.5848 15.276 71.2409 14.9126 72.0952 14.9126C73.0112 14.9126 73.6956 15.2345 74.1485 15.8782C74.6014 16.5219 74.8355 17.4849 74.851 18.7672V19.6861ZM73.4924 18.8996C73.4924 17.9548 73.3483 17.2591 73.0601 16.8126C72.7719 16.361 72.3088 16.1352 71.6706 16.1352C71.0171 16.1352 70.5205 16.4648 70.1808 17.1241V21.5083C70.5153 22.152 71.0171 22.4739 71.6861 22.4739C72.3036 22.4739 72.7565 22.2506 73.0447 21.8042C73.338 21.3525 73.4872 20.6647 73.4924 19.7406V18.8996Z" fill="#999999"/>
<path d="M80.9107 23.494C80.8284 23.3123 80.7692 23.006 80.7332 22.5751C80.2494 23.2915 79.6319 23.6497 78.8806 23.6497C78.1241 23.6497 77.5323 23.4369 77.1051 23.0112C76.6832 22.5803 76.4722 21.9755 76.4722 21.1968C76.4722 20.3402 76.7604 19.6601 77.3367 19.1566C77.9131 18.653 78.703 18.396 79.7065 18.3856H80.71V17.4901C80.71 16.9866 80.5994 16.6284 80.3781 16.4155C80.1568 16.2027 79.8197 16.0962 79.3669 16.0962C78.9552 16.0962 78.6207 16.2208 78.3634 16.47C78.1061 16.714 77.9774 17.0255 77.9774 17.4045H76.6111C76.6111 16.9736 76.7372 16.5635 76.9894 16.1741C77.2415 15.7796 77.5812 15.4707 78.0083 15.2474C78.4354 15.0242 78.9114 14.9126 79.4363 14.9126C80.2906 14.9126 80.939 15.128 81.3816 15.5589C81.8293 15.9846 82.0583 16.6076 82.0686 17.4278V21.6796C82.0737 22.3285 82.1612 22.8918 82.331 23.3694V23.494H80.9107ZM79.089 22.396C79.4235 22.396 79.7425 22.3025 80.0462 22.1157C80.3498 21.9288 80.5711 21.6951 80.71 21.4148V19.4057H79.9381C79.2897 19.4161 78.7776 19.5641 78.402 19.8496C78.0263 20.1299 77.8385 20.5245 77.8385 21.0332C77.8385 21.5109 77.9337 21.8587 78.1241 22.0767C78.3145 22.2896 78.6361 22.396 79.089 22.396Z" fill="#999999"/>
<path d="M87.0861 22.4739C87.5389 22.4739 87.9017 22.3337 88.1745 22.0534C88.4472 21.7678 88.5965 21.3629 88.6222 20.8386H89.9113C89.8804 21.6484 89.5948 22.3207 89.0545 22.8554C88.5193 23.3849 87.8631 23.6497 87.0861 23.6497C86.0517 23.6497 85.2618 23.3226 84.7163 22.6685C84.1759 22.0092 83.9058 21.0307 83.9058 19.7328V18.8061C83.9058 17.5342 84.1759 16.5687 84.7163 15.9093C85.2566 15.2448 86.044 14.9126 87.0783 14.9126C87.9326 14.9126 88.6093 15.1851 89.1085 15.7302C89.6128 16.2753 89.8804 17.0203 89.9113 17.9651H88.6222C88.5913 17.3422 88.4421 16.8749 88.1745 16.5635C87.912 16.252 87.5466 16.0962 87.0783 16.0962C86.4711 16.0962 86.0208 16.2987 85.7275 16.7036C85.4342 17.1034 85.2823 17.7627 85.2721 18.6815V19.7562C85.2721 20.7477 85.4162 21.4486 85.7043 21.8587C85.9977 22.2688 86.4582 22.4739 87.0861 22.4739Z" fill="#999999"/>
<path d="M94.473 23.6497C93.4335 23.6497 92.6359 23.3382 92.0801 22.7153C91.5243 22.0871 91.2413 21.1682 91.231 19.9586V18.9385C91.231 17.6822 91.5011 16.6984 92.0415 15.9872C92.587 15.2708 93.346 14.9126 94.3186 14.9126C95.2964 14.9126 96.0272 15.2267 96.5109 15.8548C96.9946 16.483 97.2416 17.4616 97.2519 18.7906V19.6939H92.5895V19.8885C92.5895 20.7918 92.7568 21.4486 93.0913 21.8587C93.4309 22.2688 93.9172 22.4739 94.5502 22.4739C94.9516 22.4739 95.3041 22.3986 95.6077 22.248C95.9165 22.0923 96.2047 21.8483 96.4723 21.516L97.1825 22.3882C96.5907 23.2292 95.6875 23.6497 94.473 23.6497ZM94.3186 16.0962C93.7526 16.0962 93.3332 16.2935 93.0604 16.6881C92.7877 17.0774 92.6333 17.6848 92.5973 18.5102H95.8856V18.3233C95.8496 17.5239 95.7055 16.9528 95.4534 16.6102C95.2063 16.2676 94.8281 16.0962 94.3186 16.0962Z" fill="#999999"/>
<path d="M63.527 40.0642C63.9799 40.0642 64.3427 39.924 64.6154 39.6437C64.8881 39.3582 65.0374 38.9532 65.0631 38.4289H66.3522C66.3213 39.2388 66.0357 39.911 65.4954 40.4458C64.9602 40.9753 64.3041 41.24 63.527 41.24C62.4926 41.24 61.7027 40.913 61.1572 40.2589C60.6169 39.5996 60.3467 38.621 60.3467 37.3231V36.3965C60.3467 35.1246 60.6169 34.159 61.1572 33.4997C61.6975 32.8352 62.4849 32.5029 63.5193 32.5029C64.3735 32.5029 65.0503 32.7755 65.5494 33.3206C66.0537 33.8657 66.3213 34.6106 66.3522 35.5555H65.0631C65.0322 34.9325 64.883 34.4653 64.6154 34.1538C64.3529 33.8423 63.9876 33.6866 63.5193 33.6866C62.912 33.6866 62.4617 33.889 62.1684 34.294C61.8751 34.6937 61.7233 35.353 61.713 36.2719V37.3465C61.713 38.3381 61.8571 39.0389 62.1453 39.449C62.4386 39.8591 62.8992 40.0642 63.527 40.0642Z" fill="#999999"/>
<path d="M67.6411 36.4821C67.6411 35.257 67.9344 34.2888 68.5211 33.5775C69.1129 32.8611 69.8925 32.5029 70.86 32.5029C71.8275 32.5029 72.6046 32.8508 73.1912 33.5464C73.783 34.242 74.0867 35.1895 74.1021 36.3887V37.2764C74.1021 38.4964 73.8088 39.462 73.2221 40.1732C72.6354 40.8844 71.8532 41.24 70.8755 41.24C69.908 41.24 69.1309 40.8948 68.5443 40.2044C67.9627 39.5139 67.6617 38.5795 67.6411 37.401V36.4821ZM69.0074 37.2764C69.0074 38.1434 69.1747 38.826 69.5092 39.3244C69.8488 39.8176 70.3042 40.0642 70.8755 40.0642C72.0797 40.0642 72.6998 39.1868 72.7358 37.4322V36.4821C72.7358 35.6204 72.566 34.9403 72.2263 34.4419C71.8867 33.9383 71.4312 33.6866 70.86 33.6866C70.2991 33.6866 69.8488 33.9383 69.5092 34.4419C69.1747 34.9403 69.0074 35.6178 69.0074 36.4743V37.2764Z" fill="#999999"/>
<path d="M77.151 32.6587L77.1819 33.4374C77.6914 32.8144 78.3629 32.5029 79.1966 32.5029C80.1281 32.5029 80.779 32.9105 81.1496 33.7255C81.6745 32.9105 82.4052 32.5029 83.3418 32.5029C84.8805 32.5029 85.6679 33.4711 85.7039 35.4075V41.0843H84.3453V35.5399C84.3453 34.9273 84.2372 34.4731 84.0211 34.1772C83.805 33.8761 83.4396 33.7255 82.925 33.7255C82.5133 33.7255 82.1788 33.8864 81.9215 34.2083C81.6642 34.5302 81.5149 34.9403 81.4738 35.4387V41.0843H80.0998V35.4776C80.0843 34.3095 79.6134 33.7255 78.6871 33.7255C77.9976 33.7255 77.5112 34.0733 77.2282 34.769V41.0843H75.8696V32.6587H77.151Z" fill="#999999"/>
<path d="M93.7938 37.2764C93.7938 38.6106 93.5545 39.6047 93.076 40.2589C92.6025 40.913 91.9309 41.24 91.0612 41.24C90.2224 41.24 89.5766 40.9208 89.1237 40.2822V44.3237H87.7651V32.6587H89.0002L89.0697 33.5931C89.5277 32.8663 90.1838 32.5029 91.0381 32.5029C91.9541 32.5029 92.6385 32.8248 93.0914 33.4685C93.5443 34.1123 93.7784 35.0753 93.7938 36.3575V37.2764ZM92.4353 36.4899C92.4353 35.5451 92.2912 34.8494 92.003 34.403C91.7148 33.9513 91.2516 33.7255 90.6135 33.7255C89.96 33.7255 89.4634 34.0552 89.1237 34.7145V39.0986C89.4582 39.7423 89.96 40.0642 90.629 40.0642C91.2465 40.0642 91.6994 39.841 91.9875 39.3945C92.2809 38.9428 92.4301 38.255 92.4353 37.3309V36.4899Z" fill="#999999"/>
<path d="M99.8536 41.0843C99.7712 40.9026 99.7121 40.5963 99.676 40.1654C99.1923 40.8818 98.5748 41.24 97.8234 41.24C97.0669 41.24 96.4751 41.0272 96.048 40.6015C95.626 40.1706 95.415 39.5658 95.415 38.7871C95.415 37.9305 95.7032 37.2505 96.2796 36.7469C96.856 36.2433 97.6459 35.9864 98.6494 35.976H99.6529V35.0805C99.6529 34.5769 99.5422 34.2187 99.321 34.0058C99.0997 33.793 98.7626 33.6866 98.3097 33.6866C97.8981 33.6866 97.5636 33.8112 97.3062 34.0603C97.0489 34.3043 96.9203 34.6158 96.9203 34.9948H95.554C95.554 34.5639 95.6801 34.1538 95.9322 33.7644C96.1844 33.3699 96.524 33.061 96.9512 32.8378C97.3783 32.6145 97.8543 32.5029 98.3792 32.5029C99.2335 32.5029 99.8819 32.7184 100.324 33.1493C100.772 33.575 101.001 34.1979 101.011 35.0182V39.2699C101.017 39.9188 101.104 40.4821 101.274 40.9597V41.0843H99.8536ZM98.0319 39.9863C98.3663 39.9863 98.6854 39.8929 98.989 39.706C99.2927 39.5191 99.5139 39.2855 99.6529 39.0051V36.9961H98.881C98.2325 37.0065 97.7205 37.1544 97.3448 37.4399C96.9692 37.7203 96.7813 38.1148 96.7813 38.6236C96.7813 39.1012 96.8765 39.449 97.0669 39.6671C97.2574 39.8799 97.579 39.9863 98.0319 39.9863Z" fill="#999999"/>
<path d="M104.416 32.6587L104.454 33.5698C104.984 32.8585 105.661 32.5029 106.484 32.5029C107.961 32.5029 108.71 33.4971 108.731 35.4854V41.0843H107.372V35.5477C107.372 34.8884 107.261 34.4211 107.04 34.146C106.824 33.8657 106.497 33.7255 106.06 33.7255C105.72 33.7255 105.414 33.8397 105.141 34.0681C104.874 34.2966 104.657 34.5951 104.493 34.9636V41.0843H103.126V32.6587H104.416Z" fill="#999999"/>
<path d="M113.061 38.7949L114.582 32.6587H116.033L113.3 42.2757C113.094 42.9973 112.804 43.545 112.428 43.9188C112.052 44.2978 111.625 44.4873 111.147 44.4873C110.961 44.4873 110.725 44.4457 110.436 44.3627V43.1946L110.738 43.2258C111.134 43.2258 111.443 43.1297 111.664 42.9376C111.89 42.7507 112.073 42.4237 112.212 41.9565L112.482 41.0142L110.027 32.6587H111.517L113.061 38.7949Z" fill="#999999"/>
</g>
<defs>
<clipPath id="clip0_456_5275">
<rect width="115.854" height="50" fill="white" transform="translate(0.179199)"/>
</clipPath>
</defs>
</svg>
