<svg width="120" height="42" viewBox="0 0 120 42" fill="none" xmlns="http://www.w3.org/2000/svg">
<g clip-path="url(#clip0_456_5250)">
<rect width="31" height="2" transform="translate(44.8867 0.271973)" fill="#999999"/>
<path d="M19.6779 21.672H17.3419V26.6H15.7739V15.4H17.3419V20.264H19.7099L23.2299 15.4H24.9419L20.9419 20.824L25.1339 26.6H23.3099L19.6779 21.672Z" fill="#999999"/>
<path d="M31.1419 15.4C32.5926 15.4 33.7339 15.7466 34.5659 16.44C35.3979 17.1333 35.8139 18.088 35.8139 19.304C35.8139 20.52 35.3979 21.4746 34.5659 22.168C33.7339 22.8613 32.5926 23.208 31.1419 23.208H28.3739V26.6H26.7739V15.4H31.1419ZM31.0939 21.816C32.1073 21.816 32.8806 21.6026 33.4139 21.176C33.9473 20.7386 34.2139 20.1146 34.2139 19.304C34.2139 18.4933 33.9473 17.8746 33.4139 17.448C32.8806 17.0106 32.1073 16.792 31.0939 16.792H28.3739V21.816H31.0939Z" fill="#999999"/>
<path d="M46.1676 25.208V26.6H38.0396V15.4H45.9436V16.792H39.6396V20.232H45.2556V21.592H39.6396V25.208H46.1676Z" fill="#999999"/>
<path d="M55.9602 23.8H50.0082L48.7762 26.6H47.1282L52.2002 15.4H53.7842L58.8722 26.6H57.1922L55.9602 23.8ZM55.4002 22.52L52.9842 17.032L50.5682 22.52H55.4002Z" fill="#999999"/>
<path d="M67.9387 16.792H64.0987V26.6H62.5307V16.792H58.7067V15.4H67.9387V16.792Z" fill="#999999"/>
<path d="M69.8833 15.4H71.4673V24.04L78.0913 15.4H79.5633V26.6H77.9953V17.976L71.3553 26.6H69.8833V15.4Z" fill="#999999"/>
<path d="M86.9592 21.672H84.6232V26.6H83.0552V15.4H84.6232V20.264H86.9912L90.5112 15.4H92.2232L88.2232 20.824L92.4152 26.6H90.5912L86.9592 21.672Z" fill="#999999"/>
<path d="M99.0639 26.728C97.9333 26.728 96.9146 26.4826 96.0079 25.992C95.1013 25.4906 94.3866 24.8026 93.8639 23.928C93.3519 23.0533 93.0959 22.0773 93.0959 21C93.0959 19.9226 93.3519 18.9466 93.8639 18.072C94.3866 17.1973 95.1013 16.5146 96.0079 16.024C96.9146 15.5226 97.9333 15.272 99.0639 15.272C100.184 15.272 101.197 15.5226 102.104 16.024C103.011 16.5146 103.72 17.1973 104.232 18.072C104.744 18.936 105 19.912 105 21C105 22.088 104.744 23.0693 104.232 23.944C103.72 24.808 103.011 25.4906 102.104 25.992C101.197 26.4826 100.184 26.728 99.0639 26.728ZM99.0639 25.304C99.8853 25.304 100.621 25.1173 101.272 24.744C101.933 24.3706 102.451 23.8586 102.824 23.208C103.208 22.5466 103.4 21.8106 103.4 21C103.4 20.1893 103.208 19.4586 102.824 18.808C102.451 18.1466 101.933 17.6293 101.272 17.256C100.621 16.8826 99.8853 16.696 99.0639 16.696C98.2426 16.696 97.4959 16.8826 96.8239 17.256C96.1626 17.6293 95.6399 18.1466 95.2559 18.808C94.8826 19.4586 94.6959 20.1893 94.6959 21C94.6959 21.8106 94.8826 22.5466 95.2559 23.208C95.6399 23.8586 96.1626 24.3706 96.8239 24.744C97.4959 25.1173 98.2426 25.304 99.0639 25.304Z" fill="#999999"/>
<rect width="31" height="2" transform="translate(44.8867 39.728)" fill="#999999"/>
</g>
<defs>
<clipPath id="clip0_456_5250">
<rect width="119.226" height="41.456" fill="white" transform="translate(0.773926 0.271973)"/>
</clipPath>
</defs>
</svg>
