<svg width="46" height="50" viewBox="0 0 46 50" fill="none" xmlns="http://www.w3.org/2000/svg">
<g clip-path="url(#clip0_456_5265)">
<path d="M27.0869 13.9846C27.0869 21.1558 21.2735 26.9693 14.1023 26.9693C6.93109 26.9693 1.11768 21.1558 1.11768 13.9846C1.11768 6.81342 6.93109 1 14.1023 1C21.2735 1 27.0869 6.81342 27.0869 13.9846Z" stroke="#999999" stroke-width="2"/>
<path d="M44.9855 26.9708C44.9855 31.5944 41.2374 35.3425 36.6139 35.3425C31.9903 35.3425 28.2422 31.5944 28.2422 26.9708C28.2422 22.3472 31.9903 18.5991 36.6139 18.5991C41.2374 18.5991 44.9855 22.3472 44.9855 26.9708Z" stroke="#999999" stroke-width="2"/>
<path d="M9.40593 45.5923C9.40593 46.9788 9.01032 48.0408 8.2191 48.7783C7.43173 49.5157 6.29291 49.8844 4.80266 49.8844H2.41748V41.4614H5.06192C6.43694 41.4614 7.5047 41.8244 8.2652 42.5503C9.02569 43.2762 9.40593 44.2902 9.40593 45.5923ZM7.55079 45.6384C7.55079 43.8293 6.7519 42.9248 5.1541 42.9248H4.20348V48.4095H4.96973C6.69044 48.4095 7.55079 47.4858 7.55079 45.6384Z" fill="#999999"/>
<path d="M18.7966 45.6616C18.7966 47.0558 18.4509 48.1274 17.7595 48.8764C17.0682 49.6254 16.0772 49.9999 14.7867 49.9999C13.4962 49.9999 12.5052 49.6254 11.8139 48.8764C11.1225 48.1274 10.7769 47.052 10.7769 45.6501C10.7769 44.2482 11.1225 43.1785 11.8139 42.441C12.5091 41.6997 13.5039 41.3291 14.7982 41.3291C16.0926 41.3291 17.0816 41.7017 17.7653 42.4468C18.4528 43.1919 18.7966 44.2635 18.7966 45.6616ZM12.6493 45.6616C12.6493 46.6026 12.8279 47.3112 13.1851 47.7875C13.5423 48.2638 14.0762 48.5019 14.7867 48.5019C16.2117 48.5019 16.9242 47.5551 16.9242 45.6616C16.9242 43.7642 16.2155 42.8155 14.7982 42.8155C14.0877 42.8155 13.5519 43.0556 13.1908 43.5357C12.8298 44.0119 12.6493 44.7206 12.6493 45.6616Z" fill="#999999"/>
<path d="M23.792 49.8844H22.006V42.9478H19.7188V41.4614H26.0792V42.9478H23.792V49.8844Z" fill="#999999"/>
<path d="M32.3474 47.5457C32.3474 48.3062 32.0728 48.9054 31.5236 49.3433C30.9782 49.7811 30.2177 50 29.2421 50C28.3433 50 27.5483 49.831 26.8569 49.4931V47.8338C27.4254 48.0873 27.9055 48.2659 28.2973 48.3696C28.6929 48.4733 29.0539 48.5252 29.3804 48.5252C29.7721 48.5252 30.0717 48.4503 30.2791 48.3005C30.4904 48.1507 30.596 47.9279 30.596 47.6322C30.596 47.467 30.5499 47.321 30.4577 47.1943C30.3656 47.0637 30.2292 46.9389 30.0487 46.8198C29.872 46.7007 29.509 46.5106 28.9598 46.2494C28.4451 46.0075 28.0591 45.7751 27.8018 45.5523C27.5444 45.3296 27.339 45.0703 27.1853 44.7746C27.0317 44.4788 26.9549 44.1331 26.9549 43.7375C26.9549 42.9924 27.2065 42.4067 27.7096 41.9803C28.2166 41.554 28.9156 41.3408 29.8067 41.3408C30.2446 41.3408 30.6613 41.3927 31.0569 41.4964C31.4564 41.6001 31.8731 41.746 32.3071 41.9342L31.731 43.3227C31.2816 43.1383 30.909 43.0097 30.6133 42.9367C30.3214 42.8637 30.0333 42.8272 29.7491 42.8272C29.4111 42.8272 29.1518 42.906 28.9713 43.0634C28.7908 43.2209 28.7005 43.4264 28.7005 43.6799C28.7005 43.8374 28.737 43.9757 28.81 44.0947C28.883 44.2099 28.9982 44.3232 29.1557 44.4346C29.317 44.5422 29.6953 44.7381 30.2907 45.0223C31.078 45.3987 31.6177 45.777 31.9096 46.1573C32.2015 46.5337 32.3474 46.9965 32.3474 47.5457Z" fill="#999999"/>
</g>
<defs>
<clipPath id="clip0_456_5265">
<rect width="45.868" height="50" fill="white" transform="translate(0.117676)"/>
</clipPath>
</defs>
</svg>
