<svg width="128" height="50" viewBox="0 0 128 50" fill="none" xmlns="http://www.w3.org/2000/svg">
<g clip-path="url(#clip0_456_5296)">
<path d="M4.21475 20.623H0.915039C0.915039 36.5709 11.2567 49.5003 24.0149 49.5003V45.3751C13.0788 45.3751 4.21475 34.2932 4.21475 20.623Z" fill="#999999"/>
<path d="M24.0151 4.12524V0C14.9016 0 7.51514 9.23312 7.51514 20.6232C7.51514 32.0151 14.9016 41.2506 24.0151 41.2506V37.1254C16.7243 37.1254 10.8153 29.7374 10.8153 20.6238C10.8153 11.5132 16.7242 4.12524 24.0151 4.12524Z" fill="#999999"/>
<path d="M24.0148 8.25C18.546 8.25 14.1147 13.7891 14.1147 20.6233C14.1147 27.4594 18.546 33.0002 24.0148 33.0002V28.8756C20.3686 28.8756 17.4149 25.1811 17.4149 20.6251C17.4149 16.0692 20.3686 12.3752 24.0148 12.3752C27.6615 12.3752 30.6152 16.0692 30.6152 20.6251L33.9149 20.6233C33.9149 13.7891 29.4842 8.25 24.0148 8.25Z" fill="#999999"/>
<path d="M53.395 37.7398C51.155 37.7398 49.411 36.9398 48.163 35.3398C46.915 33.7398 46.291 31.4398 46.291 28.4398V16.4998H48.691V28.3198C48.691 32.8198 50.267 35.0698 53.419 35.0698C54.955 35.0698 56.131 34.5198 56.947 33.4198C57.763 32.2998 58.171 30.5998 58.171 28.3198V16.4998H60.499V28.4398C60.499 31.4598 59.875 33.7698 58.627 35.3698C57.379 36.9498 55.635 37.7398 53.395 37.7398Z" fill="#999999"/>
<path d="M79.8674 16.4998V37.4998H77.8994L67.8194 21.8398V37.4998H65.4194V16.4998H67.3874L77.4674 32.1598V16.4998H79.8674Z" fill="#999999"/>
<path d="M84.896 16.4998H87.296V37.4998H84.896V16.4998Z" fill="#999999"/>
<path d="M99.9096 37.7398C98.2136 37.7398 96.6856 37.2798 95.3256 36.3598C93.9656 35.4198 92.8936 34.1298 92.1096 32.4898C91.3416 30.8498 90.9576 29.0198 90.9576 26.9998C90.9576 24.9798 91.3416 23.1498 92.1096 21.5098C92.8936 19.8698 93.9656 18.5898 95.3256 17.6698C96.6856 16.7298 98.2136 16.2598 99.9096 16.2598C101.59 16.2598 103.11 16.7298 104.47 17.6698C105.83 18.5898 106.894 19.8698 107.662 21.5098C108.43 23.1298 108.814 24.9598 108.814 26.9998C108.814 29.0398 108.43 30.8798 107.662 32.5198C106.894 34.1398 105.83 35.4198 104.47 36.3598C103.11 37.2798 101.59 37.7398 99.9096 37.7398ZM99.9096 35.0698C101.142 35.0698 102.246 34.7198 103.222 34.0198C104.214 33.3198 104.99 32.3598 105.55 31.1398C106.126 29.8998 106.414 28.5198 106.414 26.9998C106.414 25.4798 106.126 24.1098 105.55 22.8898C104.99 21.6498 104.214 20.6798 103.222 19.9798C102.246 19.2798 101.142 18.9298 99.9096 18.9298C98.6776 18.9298 97.5576 19.2798 96.5496 19.9798C95.5576 20.6798 94.7736 21.6498 94.1976 22.8898C93.6376 24.1098 93.3576 25.4798 93.3576 26.9998C93.3576 28.5198 93.6376 29.8998 94.1976 31.1398C94.7736 32.3598 95.5576 33.3198 96.5496 34.0198C97.5576 34.7198 98.6776 35.0698 99.9096 35.0698Z" fill="#999999"/>
<path d="M126.93 16.4998V37.4998H124.962L114.882 21.8398V37.4998H112.482V16.4998H114.45L124.53 32.1598V16.4998H126.93Z" fill="#999999"/>
</g>
<defs>
<clipPath id="clip0_456_5296">
<rect width="127" height="50" fill="white" transform="translate(0.915039)"/>
</clipPath>
</defs>
</svg>
