<svg width="118" height="50" viewBox="0 0 118 50" fill="none" xmlns="http://www.w3.org/2000/svg">
<g clip-path="url(#clip0_456_5323)">
<path d="M2.76951 26.1181L2.76484 26.1069L2.7599 26.0958C2.31732 25.0997 2.04169 23.6758 1.91949 21.9432C1.79843 20.2265 1.83232 18.2795 1.96417 16.2805C2.19082 12.8445 2.703 9.31083 3.18032 6.63078C4.52607 7.24812 6.2924 8.11674 8.11001 9.17468C6.07844 13.3494 4.9952 16.9848 4.98887 19.9892C4.9134 24.2454 6.24415 28.2472 8.48513 31.196C6.19032 30.788 3.98525 29.044 2.76951 26.1181Z" stroke="#999999" stroke-width="2"/>
<path d="M9.56076 20.073L9.56106 20.0592L9.56098 20.0455C9.54505 17.3733 11.0416 13.6188 13.0498 9.87459C14.7098 6.77958 16.6464 3.82156 18.1344 1.71265C19.6233 3.8228 21.5598 6.78088 23.2195 9.87571C25.227 13.6191 26.7229 17.3727 26.7077 20.0457L26.7077 20.0591L26.7079 20.0725C26.8416 26.418 22.6017 31.1927 18.1464 31.0781L18.122 31.0775L18.0976 31.078C13.6549 31.1806 9.42414 26.3955 9.56076 20.073Z" stroke="#999999" stroke-width="2"/>
<path d="M33.5087 26.0957L33.5037 26.107L33.499 26.1184C32.2839 29.0451 30.0768 30.7894 27.7805 31.197C30.0237 28.2485 31.3488 24.2814 31.2797 19.99C31.2736 16.9855 30.1903 13.3498 28.1586 9.17468C29.9762 8.11674 31.7425 7.24812 33.0883 6.63078C33.5656 9.31076 34.0778 12.8445 34.3044 16.2805C34.4363 18.2795 34.4702 20.2266 34.3491 21.9433C34.2269 23.6759 33.9513 25.0998 33.5087 26.0957Z" stroke="#999999" stroke-width="2"/>
<path d="M5.88947 40.7535C5.02636 40.497 4.208 40.1284 3.49677 39.7469L6.73804 36.0951C7.64759 36.3548 8.58406 36.4881 9.52801 36.4881C11.0138 36.4881 12.5083 36.1572 13.9364 35.4779C14.3145 35.6309 14.7006 35.7633 15.0936 35.8741C13.8746 38.2655 11.8809 40.1555 9.79061 40.8228L9.77841 40.8267L9.76631 40.8309C8.55404 41.2524 7.21004 41.146 5.88947 40.7535Z" stroke="#999999" stroke-width="2"/>
<path d="M26.5022 40.8307L26.4902 40.8266L26.4781 40.8227C24.386 40.1545 22.3953 38.2659 21.1749 35.8734C21.5683 35.7627 21.9545 35.6304 22.3325 35.4778C23.76 36.1571 25.2539 36.4881 26.7406 36.4881C27.6845 36.4881 28.621 36.3548 29.5305 36.0951L32.7754 39.7512C32.066 40.1326 31.2495 40.501 30.3873 40.7571C29.0685 41.1488 27.7223 41.2548 26.5022 40.8307Z" stroke="#999999" stroke-width="2"/>
<path d="M18.4202 49H17.8481V40.5061C17.9471 40.3627 18.0424 40.2198 18.1342 40.0776C18.226 40.2198 18.3213 40.3627 18.4202 40.5061V49Z" stroke="#999999" stroke-width="2"/>
<path d="M49.5248 8.54987H51.1248V18.3579H57.1888V19.7499H49.5248V8.54987Z" fill="#999999"/>
<path d="M63.8777 19.8779C62.747 19.8779 61.7283 19.6325 60.8217 19.1419C59.915 18.6405 59.2003 17.9525 58.6777 17.0779C58.1657 16.2032 57.9097 15.2272 57.9097 14.1499C57.9097 13.0725 58.1657 12.0965 58.6777 11.2219C59.2003 10.3472 59.915 9.66454 60.8217 9.17387C61.7283 8.67254 62.747 8.42188 63.8777 8.42188C64.9977 8.42188 66.011 8.67254 66.9177 9.17387C67.8243 9.66454 68.5337 10.3472 69.0457 11.2219C69.5577 12.0859 69.8137 13.0619 69.8137 14.1499C69.8137 15.2379 69.5577 16.2192 69.0457 17.0939C68.5337 17.9579 67.8243 18.6405 66.9177 19.1419C66.011 19.6325 64.9977 19.8779 63.8777 19.8779ZM63.8777 18.4539C64.699 18.4539 65.435 18.2672 66.0857 17.8939C66.747 17.5205 67.2643 17.0085 67.6377 16.3579C68.0217 15.6965 68.2137 14.9605 68.2137 14.1499C68.2137 13.3392 68.0217 12.6085 67.6377 11.9579C67.2643 11.2965 66.747 10.7792 66.0857 10.4059C65.435 10.0325 64.699 9.84587 63.8777 9.84587C63.0563 9.84587 62.3097 10.0325 61.6377 10.4059C60.9763 10.7792 60.4537 11.2965 60.0697 11.9579C59.6963 12.6085 59.5097 13.3392 59.5097 14.1499C59.5097 14.9605 59.6963 15.6965 60.0697 16.3579C60.4537 17.0085 60.9763 17.5205 61.6377 17.8939C62.3097 18.2672 63.0563 18.4539 63.8777 18.4539Z" fill="#999999"/>
<path d="M74.3269 9.94187H70.4869V8.54987H79.7509V9.94187H75.9109V19.7499H74.3269V9.94187Z" fill="#999999"/>
<path d="M85.9304 19.8779C84.4371 19.8779 83.2744 19.4512 82.4424 18.5979C81.6104 17.7445 81.1944 16.5179 81.1944 14.9179V8.54987H82.7944V14.8539C82.7944 17.2539 83.8451 18.4539 85.9464 18.4539C86.9704 18.4539 87.7544 18.1605 88.2984 17.5739C88.8424 16.9765 89.1144 16.0699 89.1144 14.8539V8.54987H90.6664V14.9179C90.6664 16.5285 90.2504 17.7605 89.4184 18.6139C88.5864 19.4565 87.4238 19.8779 85.9304 19.8779Z" fill="#999999"/>
<path d="M97.2107 19.8779C96.368 19.8779 95.552 19.7499 94.7627 19.4939C93.984 19.2272 93.3707 18.8859 92.9227 18.4699L93.5147 17.2219C93.9413 17.6059 94.4853 17.9205 95.1467 18.1659C95.8187 18.4005 96.5067 18.5179 97.2107 18.5179C98.1387 18.5179 98.832 18.3632 99.2907 18.0539C99.7493 17.7339 99.9787 17.3125 99.9787 16.7899C99.9787 16.4059 99.8507 16.0965 99.5947 15.8619C99.3493 15.6165 99.04 15.4299 98.6667 15.3019C98.304 15.1739 97.7867 15.0299 97.1147 14.8699C96.272 14.6672 95.5893 14.4645 95.0667 14.2619C94.5547 14.0592 94.112 13.7499 93.7387 13.3339C93.376 12.9072 93.1947 12.3365 93.1947 11.6219C93.1947 11.0245 93.3493 10.4859 93.6587 10.0059C93.9787 9.52587 94.4587 9.14187 95.0987 8.85387C95.7387 8.56587 96.5333 8.42188 97.4827 8.42188C98.144 8.42188 98.7947 8.50721 99.4347 8.67787C100.075 8.84854 100.624 9.09387 101.083 9.41387L100.555 10.6939C100.085 10.3952 99.584 10.1712 99.0507 10.0219C98.5173 9.86187 97.9947 9.78187 97.4827 9.78187C96.576 9.78187 95.8933 9.94721 95.4347 10.2779C94.9867 10.6085 94.7627 11.0352 94.7627 11.5579C94.7627 11.9419 94.8907 12.2565 95.1467 12.5019C95.4027 12.7365 95.7173 12.9232 96.0907 13.0619C96.4747 13.1899 96.992 13.3285 97.6427 13.4779C98.4853 13.6805 99.1627 13.8832 99.6747 14.0859C100.187 14.2885 100.624 14.5979 100.987 15.0139C101.36 15.4299 101.547 15.9899 101.547 16.6939C101.547 17.2805 101.387 17.8192 101.067 18.3099C100.747 18.7899 100.261 19.1739 99.6107 19.4619C98.96 19.7392 98.16 19.8779 97.2107 19.8779Z" fill="#999999"/>
<path d="M57.2848 34.0859H58.8208V38.4539C58.2661 38.9125 57.6208 39.2645 56.8848 39.5099C56.1488 39.7552 55.3808 39.8779 54.5808 39.8779C53.4501 39.8779 52.4315 39.6325 51.5248 39.1419C50.6181 38.6405 49.9035 37.9579 49.3808 37.0939C48.8688 36.2192 48.6128 35.2379 48.6128 34.1499C48.6128 33.0619 48.8688 32.0805 49.3808 31.2059C49.9035 30.3312 50.6181 29.6485 51.5248 29.1579C52.4421 28.6672 53.4715 28.4219 54.6128 28.4219C55.5088 28.4219 56.3195 28.5712 57.0448 28.8699C57.7808 29.1579 58.4048 29.5845 58.9168 30.1499L57.9248 31.1419C57.0288 30.2779 55.9461 29.8459 54.6768 29.8459C53.8235 29.8459 53.0555 30.0325 52.3728 30.4059C51.7008 30.7685 51.1728 31.2805 50.7888 31.9419C50.4048 32.5925 50.2128 33.3285 50.2128 34.1499C50.2128 34.9605 50.4048 35.6965 50.7888 36.3579C51.1728 37.0085 51.7008 37.5205 52.3728 37.8939C53.0555 38.2672 53.8181 38.4539 54.6608 38.4539C55.6635 38.4539 56.5381 38.2139 57.2848 37.7339V34.0859Z" fill="#999999"/>
<path d="M69.3722 39.7499L66.9562 36.3099C66.6575 36.3312 66.4228 36.3419 66.2522 36.3419H63.4842V39.7499H61.8842V28.5499H66.2522C67.7028 28.5499 68.8442 28.8965 69.6762 29.5899C70.5082 30.2832 70.9242 31.2379 70.9242 32.4539C70.9242 33.3179 70.7108 34.0539 70.2842 34.6619C69.8575 35.2699 69.2495 35.7125 68.4602 35.9899L71.1162 39.7499H69.3722ZM66.2042 34.9819C67.2175 34.9819 67.9908 34.7632 68.5242 34.3259C69.0575 33.8885 69.3242 33.2645 69.3242 32.4539C69.3242 31.6432 69.0575 31.0245 68.5242 30.5979C67.9908 30.1605 67.2175 29.9419 66.2042 29.9419H63.4842V34.9819H66.2042Z" fill="#999999"/>
<path d="M78.5652 39.8779C77.4345 39.8779 76.4158 39.6325 75.5092 39.1419C74.6025 38.6405 73.8878 37.9525 73.3652 37.0779C72.8532 36.2032 72.5972 35.2272 72.5972 34.1499C72.5972 33.0725 72.8532 32.0965 73.3652 31.2219C73.8878 30.3472 74.6025 29.6645 75.5092 29.1739C76.4158 28.6725 77.4345 28.4219 78.5652 28.4219C79.6852 28.4219 80.6985 28.6725 81.6052 29.1739C82.5118 29.6645 83.2212 30.3472 83.7332 31.2219C84.2452 32.0859 84.5012 33.0619 84.5012 34.1499C84.5012 35.2379 84.2452 36.2192 83.7332 37.0939C83.2212 37.9579 82.5118 38.6405 81.6052 39.1419C80.6985 39.6325 79.6852 39.8779 78.5652 39.8779ZM78.5652 38.4539C79.3865 38.4539 80.1225 38.2672 80.7732 37.8939C81.4345 37.5205 81.9518 37.0085 82.3252 36.3579C82.7092 35.6965 82.9012 34.9605 82.9012 34.1499C82.9012 33.3392 82.7092 32.6085 82.3252 31.9579C81.9518 31.2965 81.4345 30.7792 80.7732 30.4059C80.1225 30.0325 79.3865 29.8459 78.5652 29.8459C77.7438 29.8459 76.9972 30.0325 76.3252 30.4059C75.6638 30.7792 75.1412 31.2965 74.7572 31.9579C74.3838 32.6085 74.1972 33.3392 74.1972 34.1499C74.1972 34.9605 74.3838 35.6965 74.7572 36.3579C75.1412 37.0085 75.6638 37.5205 76.3252 37.8939C76.9972 38.2672 77.7438 38.4539 78.5652 38.4539Z" fill="#999999"/>
<path d="M91.5867 39.8779C90.0933 39.8779 88.9307 39.4512 88.0987 38.5979C87.2667 37.7445 86.8507 36.5179 86.8507 34.9179V28.5499H88.4507V34.8539C88.4507 37.2539 89.5013 38.4539 91.6027 38.4539C92.6267 38.4539 93.4107 38.1605 93.9547 37.5739C94.4987 36.9765 94.7707 36.0699 94.7707 34.8539V28.5499H96.3227V34.9179C96.3227 36.5285 95.9067 37.7605 95.0747 38.6139C94.2427 39.4565 93.08 39.8779 91.5867 39.8779Z" fill="#999999"/>
<path d="M103.971 28.5499C105.422 28.5499 106.563 28.8965 107.395 29.5899C108.227 30.2832 108.643 31.2379 108.643 32.4539C108.643 33.6699 108.227 34.6245 107.395 35.3179C106.563 36.0112 105.422 36.3579 103.971 36.3579H101.203V39.7499H99.6029V28.5499H103.971ZM103.923 34.9659C104.936 34.9659 105.71 34.7525 106.243 34.3259C106.776 33.8885 107.043 33.2645 107.043 32.4539C107.043 31.6432 106.776 31.0245 106.243 30.5979C105.71 30.1605 104.936 29.9419 103.923 29.9419H101.203V34.9659H103.923Z" fill="#999999"/>
</g>
<defs>
<clipPath id="clip0_456_5323">
<rect width="117" height="50" fill="white" transform="translate(0.844727)"/>
</clipPath>
</defs>
</svg>
