<svg width="147" height="50" viewBox="0 0 147 50" fill="none" xmlns="http://www.w3.org/2000/svg">
<g clip-path="url(#clip0_456_5254)">
<path d="M2.13909 26.0409L2.13265 26.0285L2.12586 26.0163C1.58424 25.0411 1.24406 23.6429 1.09269 21.9257C0.942682 20.2241 0.984365 18.2892 1.14864 16.2969C1.43657 12.8049 2.09475 9.20884 2.69996 6.51631C4.42855 7.14128 6.81523 8.0659 9.27855 9.21243C6.7866 13.3357 5.43874 16.9596 5.43018 19.9867C5.33535 24.2893 7.01054 28.296 9.77527 31.2314C6.63137 30.8849 3.68855 29.0241 2.13909 26.0409Z" stroke="#999999" stroke-width="2"/>
<path d="M10.645 20.0784L10.6454 20.0612L10.6453 20.044C10.6359 18.7774 11.071 17.2047 11.863 15.4335C12.6481 13.6776 13.7482 11.8041 14.9854 9.9588C17.1617 6.71263 19.7196 3.61579 21.6121 1.49143C23.5058 3.61722 26.0636 6.71404 28.2394 9.95992C29.4762 11.8049 30.5759 13.6779 31.3608 15.4335C32.1525 17.2044 32.5878 18.7772 32.5788 20.0443L32.5786 20.061L32.5791 20.0777C32.74 26.1888 27.5896 31.2009 21.6155 31.078L21.5959 31.0776L21.5764 31.078C15.6193 31.188 10.4805 26.1668 10.645 20.0784Z" stroke="#999999" stroke-width="2"/>
<path d="M41.0983 26.0163L41.0914 26.0286L41.0849 26.0412C39.5364 29.0251 36.591 30.8863 33.4453 31.2323C36.2128 28.2974 37.8808 24.3249 37.794 19.9877C37.7857 16.9604 36.4379 13.3362 33.9456 9.21243C36.4089 8.0659 38.7956 7.14128 40.5242 6.51631C41.1294 9.20876 41.7876 12.8048 42.0755 16.2969C42.2398 18.2892 42.2815 20.2241 42.1315 21.9258C41.9801 23.6429 41.6399 25.0412 41.0983 26.0163Z" stroke="#999999" stroke-width="2"/>
<path d="M11.3153 40.8065L11.305 40.8092L11.2948 40.812C9.66431 41.2655 7.88113 41.1433 6.18138 40.7392C5.08795 40.4792 4.05571 40.109 3.1599 39.7268L7.23961 36.0497C8.4179 36.3397 9.63221 36.4881 10.8544 36.4881C12.699 36.4881 14.5636 36.1494 16.351 35.4446C16.8913 35.6264 17.4443 35.7802 18.008 35.9044C16.4873 38.2268 14.0102 40.1183 11.3153 40.8065Z" stroke="#999999" stroke-width="2"/>
<path d="M31.9293 40.8119L31.9192 40.809L31.909 40.8064C29.2119 40.1173 26.7382 38.227 25.216 35.9036C25.7804 35.7796 26.3337 35.626 26.8738 35.4446C28.6604 36.1494 30.5241 36.4881 32.3698 36.4881C33.5919 36.4881 34.8062 36.3397 35.9845 36.0497L40.0687 39.731C37.7761 40.711 34.6724 41.5746 31.9293 40.8119Z" stroke="#999999" stroke-width="2"/>
<path d="M22.2195 49H21.0044V40.5662C21.2204 40.3148 21.4227 40.0645 21.612 39.8173C21.8012 40.0645 22.0035 40.3148 22.2195 40.5662V49Z" stroke="#999999" stroke-width="2"/>
<path d="M60.4301 8.54987H62.0301V18.3579H68.0941V19.7499H60.4301V8.54987Z" fill="#999999"/>
<path d="M74.7829 19.8779C73.6523 19.8779 72.6336 19.6325 71.7269 19.1419C70.8203 18.6405 70.1056 17.9525 69.5829 17.0779C69.0709 16.2032 68.8149 15.2272 68.8149 14.1499C68.8149 13.0725 69.0709 12.0965 69.5829 11.2219C70.1056 10.3472 70.8203 9.66454 71.7269 9.17387C72.6336 8.67254 73.6523 8.42188 74.7829 8.42188C75.9029 8.42188 76.9163 8.67254 77.8229 9.17387C78.7296 9.66454 79.4389 10.3472 79.9509 11.2219C80.4629 12.0859 80.7189 13.0619 80.7189 14.1499C80.7189 15.2379 80.4629 16.2192 79.9509 17.0939C79.4389 17.9579 78.7296 18.6405 77.8229 19.1419C76.9163 19.6325 75.9029 19.8779 74.7829 19.8779ZM74.7829 18.4539C75.6043 18.4539 76.3403 18.2672 76.9909 17.8939C77.6523 17.5205 78.1696 17.0085 78.5429 16.3579C78.9269 15.6965 79.1189 14.9605 79.1189 14.1499C79.1189 13.3392 78.9269 12.6085 78.5429 11.9579C78.1696 11.2965 77.6523 10.7792 76.9909 10.4059C76.3403 10.0325 75.6043 9.84587 74.7829 9.84587C73.9616 9.84587 73.2149 10.0325 72.5429 10.4059C71.8816 10.7792 71.3589 11.2965 70.9749 11.9579C70.6016 12.6085 70.4149 13.3392 70.4149 14.1499C70.4149 14.9605 70.6016 15.6965 70.9749 16.3579C71.3589 17.0085 71.8816 17.5205 72.5429 17.8939C73.2149 18.2672 73.9616 18.4539 74.7829 18.4539Z" fill="#999999"/>
<path d="M85.2322 9.94187H81.3922V8.54987H90.6562V9.94187H86.8162V19.7499H85.2322V9.94187Z" fill="#999999"/>
<path d="M96.8357 19.8779C95.3424 19.8779 94.1797 19.4512 93.3477 18.5979C92.5157 17.7445 92.0997 16.5179 92.0997 14.9179V8.54987H93.6997V14.8539C93.6997 17.2539 94.7504 18.4539 96.8517 18.4539C97.8757 18.4539 98.6597 18.1605 99.2037 17.5739C99.7477 16.9765 100.02 16.0699 100.02 14.8539V8.54987H101.572V14.9179C101.572 16.5285 101.156 17.7605 100.324 18.6139C99.4917 19.4565 98.329 19.8779 96.8357 19.8779Z" fill="#999999"/>
<path d="M108.116 19.8779C107.273 19.8779 106.457 19.7499 105.668 19.4939C104.889 19.2272 104.276 18.8859 103.828 18.4699L104.42 17.2219C104.847 17.6059 105.391 17.9205 106.052 18.1659C106.724 18.4005 107.412 18.5179 108.116 18.5179C109.044 18.5179 109.737 18.3632 110.196 18.0539C110.655 17.7339 110.884 17.3125 110.884 16.7899C110.884 16.4059 110.756 16.0965 110.5 15.8619C110.255 15.6165 109.945 15.4299 109.572 15.3019C109.209 15.1739 108.692 15.0299 108.02 14.8699C107.177 14.6672 106.495 14.4645 105.972 14.2619C105.46 14.0592 105.017 13.7499 104.644 13.3339C104.281 12.9072 104.1 12.3365 104.1 11.6219C104.1 11.0245 104.255 10.4859 104.564 10.0059C104.884 9.52587 105.364 9.14187 106.004 8.85387C106.644 8.56587 107.439 8.42188 108.388 8.42188C109.049 8.42188 109.7 8.50721 110.34 8.67787C110.98 8.84854 111.529 9.09387 111.988 9.41387L111.46 10.6939C110.991 10.3952 110.489 10.1712 109.956 10.0219C109.423 9.86187 108.9 9.78187 108.388 9.78187C107.481 9.78187 106.799 9.94721 106.34 10.2779C105.892 10.6085 105.668 11.0352 105.668 11.5579C105.668 11.9419 105.796 12.2565 106.052 12.5019C106.308 12.7365 106.623 12.9232 106.996 13.0619C107.38 13.1899 107.897 13.3285 108.548 13.4779C109.391 13.6805 110.068 13.8832 110.58 14.0859C111.092 14.2885 111.529 14.5979 111.892 15.0139C112.265 15.4299 112.452 15.9899 112.452 16.6939C112.452 17.2805 112.292 17.8192 111.972 18.3099C111.652 18.7899 111.167 19.1739 110.516 19.4619C109.865 19.7392 109.065 19.8779 108.116 19.8779Z" fill="#999999"/>
<path d="M68.1901 34.0859H69.7261V38.4539C69.1714 38.9125 68.5261 39.2645 67.7901 39.5099C67.0541 39.7552 66.2861 39.8779 65.4861 39.8779C64.3554 39.8779 63.3367 39.6325 62.4301 39.1419C61.5234 38.6405 60.8087 37.9579 60.2861 37.0939C59.7741 36.2192 59.5181 35.2379 59.5181 34.1499C59.5181 33.0619 59.7741 32.0805 60.2861 31.2059C60.8087 30.3312 61.5234 29.6485 62.4301 29.1579C63.3474 28.6672 64.3767 28.4219 65.5181 28.4219C66.4141 28.4219 67.2247 28.5712 67.9501 28.8699C68.6861 29.1579 69.3101 29.5845 69.8221 30.1499L68.8301 31.1419C67.9341 30.2779 66.8514 29.8459 65.5821 29.8459C64.7287 29.8459 63.9607 30.0325 63.2781 30.4059C62.6061 30.7685 62.0781 31.2805 61.6941 31.9419C61.3101 32.5925 61.1181 33.3285 61.1181 34.1499C61.1181 34.9605 61.3101 35.6965 61.6941 36.3579C62.0781 37.0085 62.6061 37.5205 63.2781 37.8939C63.9607 38.2672 64.7234 38.4539 65.5661 38.4539C66.5687 38.4539 67.4434 38.2139 68.1901 37.7339V34.0859Z" fill="#999999"/>
<path d="M80.2774 39.7499L77.8614 36.3099C77.5628 36.3312 77.3281 36.3419 77.1574 36.3419H74.3894V39.7499H72.7894V28.5499H77.1574C78.6081 28.5499 79.7494 28.8965 80.5814 29.5899C81.4134 30.2832 81.8294 31.2379 81.8294 32.4539C81.8294 33.3179 81.6161 34.0539 81.1894 34.6619C80.7628 35.2699 80.1548 35.7125 79.3654 35.9899L82.0214 39.7499H80.2774ZM77.1094 34.9819C78.1228 34.9819 78.8961 34.7632 79.4294 34.3259C79.9628 33.8885 80.2294 33.2645 80.2294 32.4539C80.2294 31.6432 79.9628 31.0245 79.4294 30.5979C78.8961 30.1605 78.1228 29.9419 77.1094 29.9419H74.3894V34.9819H77.1094Z" fill="#999999"/>
<path d="M89.4704 39.8779C88.3398 39.8779 87.3211 39.6325 86.4144 39.1419C85.5078 38.6405 84.7931 37.9525 84.2704 37.0779C83.7584 36.2032 83.5024 35.2272 83.5024 34.1499C83.5024 33.0725 83.7584 32.0965 84.2704 31.2219C84.7931 30.3472 85.5078 29.6645 86.4144 29.1739C87.3211 28.6725 88.3398 28.4219 89.4704 28.4219C90.5904 28.4219 91.6038 28.6725 92.5104 29.1739C93.4171 29.6645 94.1264 30.3472 94.6384 31.2219C95.1504 32.0859 95.4064 33.0619 95.4064 34.1499C95.4064 35.2379 95.1504 36.2192 94.6384 37.0939C94.1264 37.9579 93.4171 38.6405 92.5104 39.1419C91.6038 39.6325 90.5904 39.8779 89.4704 39.8779ZM89.4704 38.4539C90.2918 38.4539 91.0278 38.2672 91.6784 37.8939C92.3398 37.5205 92.8571 37.0085 93.2304 36.3579C93.6144 35.6965 93.8064 34.9605 93.8064 34.1499C93.8064 33.3392 93.6144 32.6085 93.2304 31.9579C92.8571 31.2965 92.3398 30.7792 91.6784 30.4059C91.0278 30.0325 90.2918 29.8459 89.4704 29.8459C88.6491 29.8459 87.9024 30.0325 87.2304 30.4059C86.5691 30.7792 86.0464 31.2965 85.6624 31.9579C85.2891 32.6085 85.1024 33.3392 85.1024 34.1499C85.1024 34.9605 85.2891 35.6965 85.6624 36.3579C86.0464 37.0085 86.5691 37.5205 87.2304 37.8939C87.9024 38.2672 88.6491 38.4539 89.4704 38.4539Z" fill="#999999"/>
<path d="M102.492 39.8779C100.999 39.8779 99.8359 39.4512 99.0039 38.5979C98.1719 37.7445 97.7559 36.5179 97.7559 34.9179V28.5499H99.3559V34.8539C99.3559 37.2539 100.407 38.4539 102.508 38.4539C103.532 38.4539 104.316 38.1605 104.86 37.5739C105.404 36.9765 105.676 36.0699 105.676 34.8539V28.5499H107.228V34.9179C107.228 36.5285 106.812 37.7605 105.98 38.6139C105.148 39.4565 103.985 39.8779 102.492 39.8779Z" fill="#999999"/>
<path d="M114.876 28.5499C116.327 28.5499 117.468 28.8965 118.3 29.5899C119.132 30.2832 119.548 31.2379 119.548 32.4539C119.548 33.6699 119.132 34.6245 118.3 35.3179C117.468 36.0112 116.327 36.3579 114.876 36.3579H112.108V39.7499H110.508V28.5499H114.876ZM114.828 34.9659C115.842 34.9659 116.615 34.7525 117.148 34.3259C117.682 33.8885 117.948 33.2645 117.948 32.4539C117.948 31.6432 117.682 31.0245 117.148 30.5979C116.615 30.1605 115.842 29.9419 114.828 29.9419H112.108V34.9659H114.828Z" fill="#999999"/>
</g>
<defs>
<clipPath id="clip0_456_5254">
<rect width="146.25" height="50" fill="white"/>
</clipPath>
</defs>
</svg>
