<svg width="121" height="42" viewBox="0 0 121 42" fill="none" xmlns="http://www.w3.org/2000/svg">
<g clip-path="url(#clip0_456_5292)">
<rect width="31" height="2" transform="translate(45.0752 0.271973)" fill="#999999"/>
<path d="M19.8664 21.672H17.5304V26.6H15.9624V15.4H17.5304V20.264H19.8984L23.4184 15.4H25.1304L21.1304 20.824L25.3224 26.6H23.4984L19.8664 21.672Z" fill="#999999"/>
<path d="M31.3304 15.4C32.7811 15.4 33.9224 15.7466 34.7544 16.44C35.5864 17.1333 36.0024 18.088 36.0024 19.304C36.0024 20.52 35.5864 21.4746 34.7544 22.168C33.9224 22.8613 32.7811 23.208 31.3304 23.208H28.5624V26.6H26.9624V15.4H31.3304ZM31.2824 21.816C32.2957 21.816 33.0691 21.6026 33.6024 21.176C34.1357 20.7386 34.4024 20.1146 34.4024 19.304C34.4024 18.4933 34.1357 17.8746 33.6024 17.448C33.0691 17.0106 32.2957 16.792 31.2824 16.792H28.5624V21.816H31.2824Z" fill="#999999"/>
<path d="M46.356 25.208V26.6H38.228V15.4H46.132V16.792H39.828V20.232H45.444V21.592H39.828V25.208H46.356Z" fill="#999999"/>
<path d="M56.1487 23.8H50.1967L48.9647 26.6H47.3167L52.3887 15.4H53.9727L59.0607 26.6H57.3807L56.1487 23.8ZM55.5887 22.52L53.1727 17.032L50.7567 22.52H55.5887Z" fill="#999999"/>
<path d="M68.1272 16.792H64.2872V26.6H62.7192V16.792H58.8952V15.4H68.1272V16.792Z" fill="#999999"/>
<path d="M70.0718 15.4H71.6558V24.04L78.2798 15.4H79.7518V26.6H78.1838V17.976L71.5438 26.6H70.0718V15.4Z" fill="#999999"/>
<path d="M87.1477 21.672H84.8117V26.6H83.2437V15.4H84.8117V20.264H87.1796L90.6997 15.4H92.4117L88.4117 20.824L92.6037 26.6H90.7797L87.1477 21.672Z" fill="#999999"/>
<path d="M99.2524 26.728C98.1217 26.728 97.1031 26.4826 96.1964 25.992C95.2897 25.4906 94.5751 24.8026 94.0524 23.928C93.5404 23.0533 93.2844 22.0773 93.2844 21C93.2844 19.9226 93.5404 18.9466 94.0524 18.072C94.5751 17.1973 95.2897 16.5146 96.1964 16.024C97.1031 15.5226 98.1217 15.272 99.2524 15.272C100.372 15.272 101.386 15.5226 102.292 16.024C103.199 16.5146 103.908 17.1973 104.42 18.072C104.932 18.936 105.188 19.912 105.188 21C105.188 22.088 104.932 23.0693 104.42 23.944C103.908 24.808 103.199 25.4906 102.292 25.992C101.386 26.4826 100.372 26.728 99.2524 26.728ZM99.2524 25.304C100.074 25.304 100.81 25.1173 101.46 24.744C102.122 24.3706 102.639 23.8586 103.012 23.208C103.396 22.5466 103.588 21.8106 103.588 21C103.588 20.1893 103.396 19.4586 103.012 18.808C102.639 18.1466 102.122 17.6293 101.46 17.256C100.81 16.8826 100.074 16.696 99.2524 16.696C98.4311 16.696 97.6844 16.8826 97.0124 17.256C96.3511 17.6293 95.8284 18.1466 95.4444 18.808C95.0711 19.4586 94.8844 20.1893 94.8844 21C94.8844 21.8106 95.0711 22.5466 95.4444 23.208C95.8284 23.8586 96.3511 24.3706 97.0124 24.744C97.6844 25.1173 98.4311 25.304 99.2524 25.304Z" fill="#999999"/>
<rect width="31" height="2" transform="translate(45.0752 39.728)" fill="#999999"/>
</g>
<defs>
<clipPath id="clip0_456_5292">
<rect width="119.226" height="41.456" fill="white" transform="translate(0.962402 0.271973)"/>
</clipPath>
</defs>
</svg>
