<svg width="419" height="516" viewBox="0 0 419 516" fill="none" xmlns="http://www.w3.org/2000/svg">
<path opacity="0.1" fill-rule="evenodd" clip-rule="evenodd" d="M-116.616 588.308C-103.626 587.855 -90.6368 587.424 -77.6473 587.152C-64.6577 586.88 -51.6682 586.767 -38.6787 586.699C-34.4296 586.677 -30.951 590.279 -30.951 594.651C-30.951 595.806 -30.951 596.916 -30.951 598.003C-30.951 602.398 -34.4296 605.955 -38.6787 605.955C-51.6682 605.955 -64.6797 605.955 -77.6473 605.955C-90.6368 605.955 -103.626 605.955 -116.616 605.955C-120.865 605.955 -124.344 602.761 -124.344 598.819C-124.344 597.845 -124.344 596.803 -124.344 595.783C-124.322 591.864 -120.865 588.466 -116.616 588.308ZM-12.2152 585.793C3.04201 585.567 18.2772 585.34 33.5124 585.249C48.7475 585.159 63.9828 584.932 79.1959 584.887C84.2376 584.864 88.2666 588.829 88.2666 593.677C88.2666 594.945 88.2446 596.168 88.2446 597.369C88.2226 602.149 84.1276 605.977 79.0859 605.977C63.7846 605.977 48.5053 605.977 33.2261 605.977C17.9469 605.977 2.66768 605.977 -12.6115 605.977C-17.6312 605.977 -21.5941 602.33 -21.5281 597.799C-21.506 596.644 -21.484 595.489 -21.462 594.333C-21.418 589.735 -17.2129 585.861 -12.2152 585.793ZM-11.4006 548.596C3.76852 547.916 18.9156 547.282 34.0628 546.829C49.1879 546.376 64.357 546.036 79.5482 545.855C84.5018 545.787 88.5968 549.729 88.5088 554.599C88.4868 555.8 88.5088 557.023 88.5088 558.246C88.4868 563.094 84.3917 567.081 79.394 567.104C64.2029 567.195 48.9897 567.489 33.7986 567.761C18.6074 568.033 3.37221 568.395 -11.7749 568.848C-16.7506 569.007 -20.8235 565.382 -20.7354 560.784C-20.7134 559.696 -20.7135 558.541 -20.6914 557.386C-20.5593 552.855 -16.3763 548.823 -11.4006 548.596ZM-10.6081 511.354C4.47301 510.221 19.5541 509.179 34.6352 508.431C49.7163 507.706 64.7973 507.185 79.8564 506.846C84.788 506.732 88.9271 510.719 88.8611 515.59C88.839 516.813 88.795 518.014 88.795 519.237C88.773 524.085 84.6779 528.027 79.7243 528.095C64.5992 528.321 49.4961 528.819 34.371 529.363C19.2679 529.907 4.12079 530.768 -10.9823 531.674C-15.958 531.968 -19.9869 528.457 -19.8548 523.904C-19.8108 522.748 -19.8108 521.593 -19.7888 520.506C-19.7007 515.907 -15.5397 511.739 -10.6081 511.354ZM-9.83748 474.066C5.17754 472.48 20.1926 471.098 35.2076 470.056C50.2006 469.014 65.1936 468.267 80.1426 467.813C85.0742 467.655 89.1252 471.642 89.1252 476.422C89.1252 477.69 89.1472 478.914 89.1252 480.114C89.0592 484.962 84.9861 488.972 80.0105 489.085C65.0175 489.448 49.9805 490.15 34.9214 491.033C19.8844 491.917 4.8033 493.117 -10.2117 494.431C-15.1654 494.862 -19.1503 491.577 -19.0182 487.024C-18.9742 485.823 -18.9742 484.713 -18.9521 483.512C-18.8421 478.914 -14.7471 474.587 -9.83748 474.066ZM-8.97882 436.891C5.94814 434.853 20.875 433.04 35.824 431.726C50.751 430.413 65.722 429.461 80.627 428.872C85.5366 428.668 89.4555 432.565 89.3894 437.435C89.3674 438.636 89.4114 439.859 89.3894 441.082C89.3234 445.93 85.3384 450.008 80.4509 450.189C65.4579 450.687 50.4648 451.503 35.5158 452.613C20.5228 453.746 5.55182 455.331 -9.41917 457.166C-14.3508 457.778 -18.2477 454.674 -18.1816 450.008C-18.1596 448.92 -18.1816 447.697 -18.1596 446.542C-17.9835 441.921 -13.9325 437.548 -8.97882 436.891ZM-8.18628 399.694C6.71867 397.18 21.5796 394.96 36.3965 393.329C51.2574 391.698 66.1403 390.61 80.9572 389.931C85.8228 389.704 89.7417 393.578 89.7417 398.426C89.7417 399.626 89.7857 400.85 89.7636 402.073C89.6756 406.875 85.6467 410.908 80.7811 411.112C65.8541 411.746 50.9932 412.788 36.0883 414.261C21.1833 415.756 6.3004 417.613 -8.62656 419.901C-13.5141 420.649 -17.4331 417.659 -17.345 413.037C-17.323 411.95 -17.301 410.727 -17.279 409.571C-17.1469 404.973 -13.0298 400.51 -8.18628 399.694ZM-7.37169 362.339C7.40117 359.416 22.218 356.789 37.0129 354.886C51.7417 352.983 66.5367 351.646 81.2875 350.831C86.131 350.559 90.0719 354.478 90.0059 359.326C89.9839 360.594 89.9838 361.818 89.9838 363.018C89.9838 367.821 85.9329 371.853 81.0673 372.125C66.2945 372.895 51.4775 374.118 36.7267 375.885C21.8878 377.652 7.04893 380.008 -7.74593 382.749C-12.6115 383.656 -16.5304 380.688 -16.3983 376.135C-16.3763 375.047 -16.3983 373.892 -16.3763 372.623C-16.3102 368.161 -12.2593 363.313 -7.37169 362.339ZM-6.57907 325.096C8.17177 321.676 22.8786 318.64 37.5854 316.488C52.2481 314.336 66.9109 312.773 81.5736 311.821C86.3952 311.504 90.4241 315.401 90.3801 320.248C90.3581 321.472 90.2921 322.672 90.2921 323.941C90.2921 328.789 86.2411 332.844 81.4196 333.093C66.6908 333.908 52.0059 335.449 37.2771 337.465C22.5483 339.459 7.75343 342.2 -6.95337 345.349C-11.8189 346.391 -15.6938 343.717 -15.5837 339.096C-15.5617 338.009 -15.5617 336.853 -15.5397 335.698C-15.4736 331.167 -11.4446 326.229 -6.57907 325.096ZM-5.80849 287.854C8.89832 283.98 23.5391 280.673 38.1578 278.158C52.7766 275.644 67.3072 273.877 81.9259 272.812C86.7474 272.472 90.6223 276.323 90.6003 281.171C90.6003 282.394 90.5783 283.595 90.5563 284.818C90.4902 289.666 86.5934 293.789 81.7498 294.106C67.1531 295.012 52.4903 296.689 37.8495 299.022C23.1868 301.355 8.47998 304.482 -6.1828 308.129C-11.0704 309.352 -14.8792 306.792 -14.8132 302.194C-14.7911 301.038 -14.7691 299.951 -14.7471 298.796C-14.593 294.106 -10.6741 289.145 -5.80849 287.854ZM-5.03798 250.543C9.60277 246.194 24.1555 242.456 38.7082 239.692C53.1949 236.951 67.7475 235.003 82.2782 233.87C87.0337 233.508 90.8425 237.336 90.8425 242.116C90.8425 243.385 90.8865 244.608 90.8645 245.809C90.7984 250.611 86.9016 254.757 82.1461 255.097C67.6154 256.139 52.9967 257.974 38.422 260.624C23.8473 263.252 9.2065 266.877 -5.43425 270.932C-10.2338 272.268 -14.0426 269.776 -13.9765 265.223C-13.9545 264.068 -13.9765 262.912 -13.9545 261.712C-13.8004 257.158 -9.81549 251.971 -5.03798 250.543ZM-4.17932 213.301C-8.95682 214.864 -12.9418 220.165 -13.0078 224.764C-13.0298 225.851 -13.0298 227.006 -13.0518 228.23C-13.1839 232.783 -9.44121 235.026 -4.61966 233.508C9.91101 228.909 24.4637 225.104 38.9944 222.159C53.459 219.214 67.9897 217.107 82.4763 215.974C87.2098 215.612 91.1287 211.557 91.1287 206.686C91.1287 205.486 91.1507 204.262 91.1507 203.039C91.1947 198.191 87.3199 194.385 82.5864 194.793C68.1879 196.016 53.7232 198.101 39.3026 201.227C24.816 204.376 10.3513 208.521 -4.17932 213.301ZM-3.40874 176.059C11.0559 170.848 25.4324 166.25 39.853 162.897C54.1855 159.567 68.5842 157.12 82.8727 155.806C87.5621 155.376 91.569 159.137 91.459 164.007C91.4369 165.208 91.3929 166.431 91.3929 167.654C91.3709 172.57 87.518 176.693 82.7625 177.123C68.408 178.392 53.9654 180.748 39.5668 183.919C25.1022 187.114 10.6596 191.327 -3.761 196.288C-8.56053 197.942 -12.4354 195.926 -12.2152 191.259C-12.1712 190.104 -12.1712 188.949 -12.1492 187.793C-12.0831 183.172 -8.18625 177.78 -3.40874 176.059ZM-2.63823 138.635C-7.41573 140.515 -11.2245 146.224 -11.3566 150.777C-11.4006 152.046 -11.3786 153.133 -11.4006 154.289C-11.5327 158.842 -7.74591 160.881 -2.99042 159.091C11.3861 153.677 25.8287 149.033 40.1832 145.499C54.4717 141.988 68.8483 139.519 83.1588 138.091C87.8482 137.638 91.6571 133.425 91.7231 128.622C91.7451 127.399 91.7011 126.198 91.7231 124.93C91.7892 120.127 87.9364 116.321 83.291 116.797C69.0465 118.27 54.736 120.761 40.4915 124.386C26.0929 128.033 11.7163 132.949 -2.63823 138.635ZM-1.82356 101.415C12.4649 95.3215 26.7314 90.0206 41.0199 86.0789C55.2203 82.1372 69.4427 79.4187 83.6432 77.765C88.2886 77.2213 92.0533 81.0498 92.0533 85.8977C92.0533 87.0983 91.9873 88.3216 91.9873 89.5449C91.9873 94.3927 88.1125 98.493 83.445 99.014C69.2226 100.577 54.8901 103.25 40.6897 107.011C26.4012 110.817 12.0686 115.846 -2.19788 121.69C-6.99739 123.661 -10.7181 121.871 -10.586 117.273C-10.564 116.185 -10.564 115.03 -10.542 113.807C-10.4319 109.231 -6.57906 103.431 -1.82356 101.415ZM-1.07503 64.1729C-5.83052 66.3703 -9.57326 72.2376 -9.66132 76.7909C-9.68333 77.9463 -9.68333 79.1016 -9.72737 80.189C-9.90349 84.9235 -6.20477 86.5999 -1.4713 84.4931C12.7732 78.1728 26.9956 72.7586 41.218 68.6583C55.3744 64.5807 69.5528 61.681 83.7092 59.982C88.3766 59.4157 92.2075 55.3607 92.2735 50.5128C92.2955 49.2896 92.2735 48.0889 92.2735 46.8656C92.2735 41.9498 88.5308 38.1214 83.9074 38.6877C69.795 40.3867 55.6386 43.3996 41.5263 47.6585C27.3258 51.9627 13.1474 57.5807 -1.07503 64.1729ZM-0.326492 27.157C13.8299 20.1344 27.9423 14.086 42.0767 9.57791C56.123 5.06986 70.1913 1.92101 84.2156 0.0634207C88.795 -0.548225 92.5377 3.34819 92.5377 8.12809C92.5377 9.39669 92.5377 10.62 92.5377 11.8206C92.5157 16.6685 88.6408 20.7687 84.0615 21.3351C69.9711 23.1247 55.8368 26.1829 41.7905 30.5551C27.6341 34.9725 13.4997 40.8171 -0.656708 47.5452C-5.4122 49.8106 -9.06691 48.2701 -8.86877 43.6715C-8.82474 42.5841 -8.82477 41.4288 -8.82477 40.1602C-8.82477 35.6068 -4.99391 29.4904 -0.326492 27.157ZM114.95 584.887C130.163 584.932 145.398 585.091 160.634 585.249C175.847 585.408 191.104 585.589 206.361 585.861C211.359 585.952 215.454 589.735 215.52 594.356C215.542 595.511 215.564 596.667 215.586 597.822C215.652 602.375 211.579 606 206.582 606C191.28 606 176.001 606 160.722 606C145.443 606 130.163 606 114.862 606C109.842 606 105.791 602.172 105.791 597.392C105.791 596.168 105.791 594.968 105.791 593.699C105.747 588.829 109.952 584.864 114.95 584.887ZM115.082 545.946C130.229 546.172 145.377 546.467 160.546 546.92C175.715 547.373 190.862 547.984 206.031 548.687C210.985 548.913 215.124 552.878 215.146 557.476C215.146 558.564 215.19 559.719 215.19 560.874C215.256 565.473 211.161 569.029 206.251 568.871C191.06 568.418 175.847 568.055 160.656 567.784C145.465 567.512 130.273 567.217 115.082 567.127C110.085 567.104 105.968 563.117 105.968 558.337C105.968 557.114 105.946 555.913 105.968 554.69C106.012 549.819 110.107 545.855 115.082 545.946ZM115.214 506.868C130.251 507.231 145.376 507.865 160.436 508.567C175.473 509.269 190.598 510.221 205.635 511.422C210.61 511.807 214.816 515.975 214.838 520.528C214.838 521.729 214.794 522.839 214.816 523.994C214.882 528.616 210.809 531.991 205.899 531.696C190.796 530.836 175.649 529.997 160.546 529.454C145.421 528.91 130.295 528.412 115.214 528.185C110.261 528.117 106.166 524.13 106.232 519.26C106.254 518.036 106.232 516.836 106.232 515.612C106.188 510.765 110.261 506.755 115.214 506.868ZM115.413 467.927C130.34 468.425 145.355 469.195 160.326 470.237C175.319 471.257 190.311 472.639 205.349 474.179C210.258 474.678 214.375 479.027 214.463 483.58C214.485 484.804 214.507 485.936 214.507 487.092C214.529 491.645 210.434 494.998 205.569 494.545C190.51 493.163 175.429 491.962 160.414 491.079C145.399 490.195 130.362 489.606 115.346 489.198C110.371 489.062 106.342 485.008 106.386 480.16C106.386 478.936 106.386 477.736 106.386 476.467C106.386 471.687 110.481 467.768 115.413 467.927ZM115.545 428.985C130.472 429.529 145.332 430.594 160.259 431.908C175.142 433.199 190.069 434.921 205.04 437.005C210.016 437.707 214.001 442.102 214.089 446.7C214.111 447.788 214.155 449.011 214.155 450.166C214.177 454.765 210.17 457.914 205.283 457.325C190.289 455.49 175.319 453.836 160.348 452.726C145.377 451.616 130.406 450.733 115.457 450.234C110.525 450.076 106.562 445.975 106.562 441.128C106.562 439.904 106.518 438.704 106.54 437.48C106.606 432.633 110.657 428.827 115.545 428.985ZM115.743 390.067C130.538 390.792 145.421 391.879 160.215 393.533C175.054 395.164 189.871 397.316 204.688 399.898C209.62 400.759 213.605 405.244 213.671 409.843C213.693 410.93 213.693 412.086 213.715 413.309C213.803 417.862 209.796 420.785 204.908 420.037C189.981 417.749 175.054 415.846 160.193 414.396C145.333 412.947 130.45 411.859 115.545 411.18C110.657 410.953 106.716 406.989 106.716 402.209C106.716 400.986 106.672 399.785 106.694 398.562C106.848 393.691 110.877 389.817 115.743 390.067ZM115.875 350.989C130.604 351.85 145.332 353.277 160.083 355.18C174.856 357.083 189.629 359.666 204.38 362.633C209.223 363.607 213.23 368.387 213.252 372.895C213.252 374.096 213.34 375.251 213.34 376.361C213.406 380.915 209.422 383.814 204.622 382.908C189.805 380.167 174.966 377.902 160.127 376.112C145.377 374.322 130.582 373.122 115.787 372.284C110.921 372.012 106.936 367.979 106.958 363.177C106.958 361.954 107.068 360.753 107.046 359.484C107.024 354.636 111.053 350.717 115.875 350.989ZM115.985 312.048C130.648 313.045 145.332 314.54 159.973 316.782C174.658 319.025 189.343 321.993 204.006 325.459C208.849 326.591 212.966 331.462 212.966 336.083C212.966 337.239 212.944 338.326 212.966 339.481C213.032 344.035 209.025 346.776 204.248 345.734C189.497 342.539 174.724 339.798 160.017 337.737C145.332 335.675 130.582 334.271 115.963 333.32C111.141 333.002 107.134 328.947 107.245 324.167C107.267 322.899 107.223 321.676 107.223 320.475C107.223 315.582 111.163 311.731 115.985 312.048ZM116.139 273.106C130.67 274.239 145.31 275.983 159.885 278.498C174.482 281.012 189.101 284.411 203.763 288.33C208.607 289.621 212.504 294.582 212.592 299.181C212.614 300.336 212.592 301.491 212.592 302.579C212.614 307.177 208.761 309.782 203.984 308.582C189.277 304.912 174.592 301.763 159.951 299.362C145.332 296.961 130.714 295.42 116.117 294.333C111.317 293.97 107.443 289.915 107.443 285.045C107.443 283.822 107.399 282.621 107.421 281.398C107.443 276.64 111.296 272.744 116.139 273.106ZM116.227 234.12C111.472 233.712 107.597 237.586 107.553 242.366C107.553 243.634 107.553 244.857 107.553 246.058C107.575 250.838 111.406 254.938 116.205 255.346C130.714 256.524 145.266 258.45 159.819 261.1C174.394 263.773 188.991 267.284 203.631 271.407C208.387 272.744 212.262 270.32 212.24 265.699C212.24 264.611 212.196 263.456 212.174 262.187C212.108 257.77 208.233 252.514 203.389 251.087C188.836 246.76 174.284 242.955 159.753 240.1C145.266 237.269 130.736 235.388 116.227 234.12ZM116.469 195.11C130.846 196.515 145.266 198.69 159.687 201.838C174.13 204.987 188.55 209.201 203.037 214.026C207.792 215.612 211.733 220.822 211.799 225.375C211.821 226.531 211.821 227.686 211.843 228.841C211.909 233.395 208.035 235.615 203.257 234.12C188.726 229.544 174.174 225.67 159.687 222.725C145.222 219.78 130.736 217.673 116.293 216.359C111.582 215.929 107.751 211.874 107.795 207.026C107.795 205.825 107.795 204.602 107.795 203.379C107.795 198.44 111.758 194.657 116.469 195.11ZM116.623 156.169C111.912 155.671 107.927 159.454 107.949 164.302C107.949 165.502 107.949 166.725 107.949 167.994C107.905 172.842 111.78 176.852 116.513 177.327C130.868 178.777 145.266 181.156 159.665 184.418C174.086 187.703 188.484 192.052 202.927 197.036C207.66 198.667 211.535 196.605 211.469 192.007C211.447 190.851 211.425 189.651 211.425 188.541C211.425 183.919 207.484 178.573 202.729 176.829C188.33 171.528 173.976 166.975 159.577 163.554C145.244 160.156 130.846 157.664 116.623 156.169ZM116.689 117.182C130.934 118.836 145.222 121.509 159.423 125.179C173.733 128.894 188.044 133.81 202.398 139.564C207.154 141.467 210.941 147.153 210.985 151.638C210.985 152.861 211.051 153.994 211.051 155.149C211.117 159.635 207.352 161.696 202.641 159.884C188.242 154.357 173.909 149.622 159.511 146.065C145.266 142.531 130.912 140.13 116.601 138.476C111.89 137.933 108.103 133.81 108.103 129.007C108.103 127.784 108.059 126.583 108.081 125.315C108.147 120.512 112.044 116.638 116.689 117.182ZM116.778 78.2408C112.154 77.6518 108.279 81.4576 108.235 86.3054C108.235 87.5287 108.257 88.7293 108.257 89.9526C108.257 94.7325 112.044 98.8555 116.689 99.4218C130.956 101.121 145.156 103.93 159.379 107.781C173.645 111.677 187.912 116.82 202.244 122.755C206.912 124.703 210.721 122.823 210.632 118.337C210.61 117.114 210.676 115.959 210.654 114.872C210.566 110.205 206.758 104.542 202.068 102.503C187.802 96.2503 173.513 90.9947 159.291 86.9171C145.156 82.8621 130.934 80.0077 116.778 78.2408ZM116.888 39.2993C130.978 41.2702 145.112 44.2831 159.181 48.5873C173.337 52.9141 187.537 58.7134 201.716 65.3283C206.405 67.503 210.148 73.3476 210.214 77.9463C210.236 79.1016 210.258 80.1889 210.258 81.3443C210.302 86.0109 206.537 87.7326 201.892 85.6485C187.648 79.2375 173.447 73.71 159.225 69.5191C145.112 65.3509 130.978 62.4059 116.844 60.5484C112.22 59.9367 108.411 55.7685 108.455 50.8979C108.455 49.6973 108.411 48.474 108.433 47.2507C108.521 42.3802 112.286 38.665 116.888 39.2993ZM117.064 0.471185C112.484 -0.231074 108.72 3.57473 108.72 8.35462C108.72 9.62322 108.654 10.8465 108.632 12.0471C108.521 16.895 112.396 21.0859 116.998 21.7428C131.022 23.8043 145.112 26.8852 159.181 31.3253C173.293 35.788 187.405 41.7686 201.562 48.6779C206.207 50.9432 210.038 49.2895 209.95 44.6682C209.928 43.5129 209.906 42.3576 209.884 41.2022C209.818 36.6489 206.053 30.6683 201.452 28.335C187.339 21.1992 173.227 15.128 159.159 10.4387C145.112 5.84008 131.044 2.62327 117.064 0.471185ZM412.587 590.981C402.481 590.324 392.354 589.848 382.248 589.554C372.165 589.282 362.038 589.191 351.932 589.146C348.63 589.146 345.9 592.295 345.9 596.123C345.9 597.097 345.9 598.094 345.9 599.045C345.9 602.874 348.63 605.977 351.976 605.977C362.192 605.977 372.407 605.977 382.601 605.977C392.816 605.977 403.032 605.977 413.225 605.977C416.572 605.977 419.148 603.259 418.993 599.952C418.949 599.136 418.905 598.275 418.861 597.437C418.729 594.13 415.889 591.185 412.587 590.981ZM411.354 563.366C401.403 561.531 391.473 560.104 381.566 559.334C371.681 558.564 361.751 558.314 351.822 558.246C348.586 558.224 345.922 561.418 345.922 565.246C345.922 566.22 345.922 567.195 345.922 568.169C345.922 571.997 348.608 575.055 351.91 575.078C361.928 575.101 371.967 575.259 381.962 575.78C391.98 576.301 402.019 577.207 412.036 578.385C415.339 578.771 417.871 576.482 417.716 573.175C417.672 572.337 417.628 571.499 417.584 570.638C417.408 567.308 414.612 563.955 411.354 563.366ZM410.121 535.706C400.368 532.693 390.637 530.36 380.861 529.046C371.196 527.755 361.443 527.37 351.712 527.279C348.52 527.234 345.922 530.473 345.922 534.302C345.922 535.276 345.922 536.272 345.922 537.224C345.922 541.052 348.564 544.088 351.778 544.111C361.597 544.179 371.438 544.496 381.236 545.538C391.077 546.58 400.94 548.415 410.781 550.748C414.04 551.518 416.528 549.638 416.374 546.331C416.329 545.515 416.285 544.654 416.241 543.816C416.087 540.486 413.357 536.703 410.121 535.706ZM408.866 508.091C399.311 503.923 389.756 500.661 380.157 498.826C370.712 497.014 361.113 496.516 351.602 496.38C348.476 496.334 345.9 499.596 345.9 503.402C345.9 504.376 345.9 505.373 345.9 506.324C345.9 510.153 348.498 513.143 351.646 513.188C361.267 513.302 370.954 513.755 380.531 515.295C390.196 516.836 399.883 519.599 409.526 523.133C412.763 524.311 415.185 522.862 415.031 519.531C414.987 518.693 414.943 517.855 414.898 516.994C414.766 513.664 412.102 509.496 408.866 508.091ZM407.633 480.431C410.848 482.244 413.445 486.842 413.599 490.173C413.643 491.011 413.688 491.872 413.732 492.687C413.886 496.017 411.53 497.059 408.316 495.473C398.849 490.784 389.382 487.114 379.871 485.03C370.536 482.991 361.025 482.38 351.58 482.221C348.476 482.176 345.944 479.208 345.944 475.402C345.944 474.451 345.944 473.454 345.944 472.48C345.944 468.652 348.476 465.344 351.536 465.412C360.871 465.593 370.294 466.273 379.518 468.561C388.919 470.917 398.276 475.108 407.633 480.431ZM406.4 452.817C397.242 446.338 388.105 441.241 378.792 438.341C369.809 435.532 360.54 434.717 351.404 434.49C348.388 434.422 345.922 437.752 345.922 441.581C345.922 442.555 345.922 443.552 345.922 444.503C345.922 448.331 348.41 451.231 351.448 451.299C360.695 451.48 370.052 452.273 379.166 454.81C388.545 457.416 397.814 462.014 407.083 467.859C410.275 469.875 412.565 469.218 412.411 465.888C412.367 465.05 412.323 464.212 412.279 463.373C412.102 460.021 409.593 455.06 406.4 452.817ZM405.167 425.18C408.316 427.853 410.781 433.222 410.957 436.529C411.002 437.39 411.046 438.228 411.09 439.066C411.244 442.374 409.02 442.645 405.85 440.199C396.779 433.199 387.73 427.671 378.484 424.523C369.633 421.487 360.409 420.581 351.36 420.354C348.388 420.286 345.944 417.409 345.944 413.581C345.944 412.63 345.944 411.655 345.944 410.659C345.944 406.83 348.366 403.432 351.294 403.523C360.254 403.795 369.391 404.814 378.109 408.099C387.268 411.542 396.185 417.545 405.167 425.18ZM403.934 397.542C395.15 388.798 386.453 381.843 377.405 377.811C368.929 374.051 359.946 372.85 351.184 372.555C348.3 372.465 345.944 375.908 345.944 379.737C345.944 380.711 345.944 381.685 345.944 382.659C345.944 386.487 348.344 389.319 351.25 389.41C360.122 389.681 369.193 390.791 377.801 394.28C386.938 397.995 395.766 404.452 404.639 412.562C407.787 415.439 409.945 415.552 409.791 412.244C409.747 411.406 409.703 410.568 409.659 409.73C409.46 406.4 407.039 400.646 403.934 397.542ZM-207.587 590.981C-197.481 590.324 -187.354 589.848 -177.248 589.554C-167.165 589.282 -157.038 589.191 -146.932 589.146C-143.63 589.146 -140.9 592.295 -140.9 596.123C-140.9 597.097 -140.9 598.094 -140.9 599.045C-140.9 602.874 -143.63 605.977 -146.976 605.977C-157.192 605.977 -167.407 605.977 -177.601 605.977C-187.816 605.977 -198.032 605.977 -208.225 605.977C-211.572 605.977 -214.148 603.259 -213.993 599.952C-213.949 599.136 -213.905 598.275 -213.861 597.437C-213.729 594.13 -210.889 591.185 -207.587 590.981ZM-206.354 563.366C-196.403 561.531 -186.473 560.104 -176.566 559.334C-166.681 558.564 -156.751 558.314 -146.822 558.246C-143.586 558.224 -140.922 561.418 -140.922 565.246C-140.922 566.22 -140.922 567.195 -140.922 568.169C-140.922 571.997 -143.608 575.055 -146.91 575.078C-156.928 575.101 -166.967 575.259 -176.962 575.78C-186.98 576.301 -197.019 577.207 -207.036 578.385C-210.339 578.771 -212.871 576.482 -212.716 573.175C-212.672 572.337 -212.628 571.499 -212.584 570.638C-212.408 567.308 -209.612 563.955 -206.354 563.366ZM-205.121 535.706C-195.368 532.693 -185.637 530.36 -175.861 529.046C-166.196 527.755 -156.443 527.37 -146.712 527.279C-143.52 527.234 -140.922 530.473 -140.922 534.302C-140.922 535.276 -140.922 536.272 -140.922 537.224C-140.922 541.052 -143.564 544.088 -146.778 544.111C-156.597 544.179 -166.438 544.496 -176.236 545.538C-186.077 546.58 -195.94 548.415 -205.781 550.748C-209.04 551.518 -211.528 549.638 -211.374 546.331C-211.329 545.515 -211.285 544.654 -211.241 543.816C-211.087 540.486 -208.357 536.703 -205.121 535.706ZM-203.866 508.091C-194.311 503.923 -184.756 500.661 -175.157 498.826C-165.712 497.014 -156.113 496.516 -146.602 496.38C-143.476 496.334 -140.9 499.596 -140.9 503.402C-140.9 504.376 -140.9 505.373 -140.9 506.324C-140.9 510.153 -143.498 513.143 -146.646 513.188C-156.267 513.302 -165.954 513.755 -175.531 515.295C-185.196 516.836 -194.883 519.599 -204.526 523.133C-207.763 524.311 -210.185 522.862 -210.03 519.531C-209.986 518.693 -209.942 517.855 -209.898 516.994C-209.766 513.664 -207.08 509.496 -203.866 508.091ZM-202.633 480.431C-205.847 482.244 -208.445 486.842 -208.599 490.173C-208.643 491.011 -208.688 491.872 -208.732 492.687C-208.886 496.017 -206.53 497.059 -203.316 495.473C-193.849 490.784 -184.382 487.114 -174.871 485.03C-165.536 482.991 -156.025 482.38 -146.58 482.221C-143.476 482.176 -140.944 479.208 -140.944 475.402C-140.944 474.451 -140.944 473.454 -140.944 472.48C-140.944 468.652 -143.476 465.344 -146.536 465.412C-155.871 465.593 -165.294 466.273 -174.518 468.561C-183.919 470.917 -193.276 475.108 -202.633 480.431ZM-201.4 452.817C-192.241 446.338 -183.105 441.241 -173.792 438.341C-164.809 435.532 -155.54 434.717 -146.404 434.49C-143.388 434.422 -140.922 437.752 -140.922 441.581C-140.922 442.555 -140.922 443.552 -140.922 444.503C-140.922 448.331 -143.41 451.231 -146.448 451.299C-155.695 451.48 -165.051 452.273 -174.166 454.81C-183.545 457.416 -192.814 462.014 -202.083 467.859C-205.275 469.875 -207.565 469.218 -207.411 465.888C-207.367 465.05 -207.322 464.212 -207.278 463.373C-207.102 460.021 -204.593 455.06 -201.4 452.817ZM-200.145 425.18C-203.294 427.853 -205.759 433.222 -205.936 436.529C-205.98 437.39 -206.024 438.228 -206.068 439.066C-206.222 442.374 -203.998 442.645 -200.828 440.199C-191.757 433.199 -182.708 427.671 -173.462 424.523C-164.611 421.487 -155.386 420.581 -146.338 420.354C-143.366 420.286 -140.922 417.409 -140.922 413.581C-140.922 412.63 -140.922 411.655 -140.922 410.659C-140.922 406.83 -143.344 403.432 -146.272 403.523C-155.232 403.795 -164.369 404.814 -173.087 408.099C-182.268 411.542 -191.185 417.545 -200.145 425.18ZM-198.934 397.542C-190.15 388.798 -181.454 381.843 -172.405 377.811C-163.929 374.051 -154.946 372.85 -146.184 372.555C-143.299 372.465 -140.944 375.908 -140.944 379.737C-140.944 380.711 -140.944 381.685 -140.944 382.659C-140.944 386.487 -143.344 389.319 -146.25 389.41C-155.122 389.681 -164.193 390.791 -172.801 394.28C-181.938 397.995 -190.766 404.452 -199.639 412.562C-202.787 415.439 -204.945 415.552 -204.791 412.244C-204.747 411.406 -204.703 410.568 -204.659 409.73C-204.46 406.4 -202.039 400.646 -198.934 397.542ZM321.616 588.308C308.626 587.855 295.637 587.424 282.647 587.152C269.658 586.88 256.668 586.767 243.679 586.699C239.43 586.677 235.951 590.279 235.951 594.651C235.951 595.806 235.951 596.916 235.951 598.003C235.951 602.398 239.43 605.955 243.679 605.955C256.668 605.955 269.68 605.955 282.647 605.955C295.637 605.955 308.626 605.955 321.616 605.955C325.865 605.955 329.344 602.761 329.344 598.819C329.344 597.845 329.344 596.803 329.344 595.783C329.344 591.864 325.865 588.466 321.616 588.308ZM321.616 555.777C308.626 554.418 295.637 553.285 282.647 552.538C269.68 551.79 256.668 551.45 243.679 551.224C239.43 551.156 235.951 554.712 235.951 559.153C235.951 560.263 235.951 561.373 235.951 562.483C235.951 566.923 239.43 570.525 243.679 570.57C256.668 570.729 269.68 570.91 282.647 571.385C295.637 571.884 308.626 572.586 321.616 573.47C325.865 573.764 329.344 570.842 329.344 566.855C329.344 565.881 329.344 564.839 329.344 563.865C329.344 559.877 325.865 556.23 321.616 555.777ZM321.616 523.201C308.648 520.959 295.637 519.124 282.647 517.9C269.68 516.7 256.668 516.066 243.679 515.726C239.43 515.612 235.951 519.169 235.951 523.609C235.951 524.719 235.951 525.829 235.951 526.939C235.951 531.334 239.43 534.959 243.679 535.072C256.668 535.389 269.68 535.797 282.647 536.748C295.637 537.722 308.648 539.172 321.616 540.939C325.865 541.505 329.344 538.855 329.344 534.913C329.344 533.917 329.344 532.897 329.344 531.923C329.344 527.936 325.865 523.949 321.616 523.201ZM321.616 490.648C308.648 487.522 295.659 484.94 282.647 483.263C269.702 481.587 256.668 480.749 243.679 480.228C239.43 480.046 235.951 483.671 235.951 488.066C235.951 489.221 235.951 490.331 235.951 491.418C235.951 495.813 239.43 499.438 243.679 499.574C256.668 500.004 269.702 500.684 282.647 502.111C295.659 503.538 308.648 505.69 321.616 508.341C325.887 509.224 329.344 506.868 329.344 502.926C329.344 501.93 329.344 500.91 329.344 499.891C329.344 495.972 325.887 491.668 321.616 490.648ZM321.616 458.118C308.67 454.108 295.681 450.778 282.647 448.603C269.724 446.429 256.668 445.477 243.679 444.798C239.43 444.571 235.951 448.173 235.951 452.545C235.951 453.7 235.951 454.81 235.951 455.898C235.951 460.293 239.452 463.917 243.679 464.098C256.668 464.687 269.724 465.571 282.647 467.451C295.681 469.377 308.67 472.299 321.616 475.81C325.887 476.965 329.344 474.904 329.344 470.962C329.344 469.988 329.344 468.946 329.344 467.927C329.344 464.008 325.887 459.432 321.616 458.118ZM321.616 425.542C325.909 427.15 329.344 432.066 329.344 436.008C329.344 437.005 329.344 438.024 329.344 438.998C329.344 442.985 325.909 444.707 321.616 443.257C308.67 438.885 295.703 435.192 282.647 432.791C269.724 430.435 256.668 429.28 243.679 428.578C239.43 428.351 235.951 424.772 235.951 420.332C235.951 419.222 235.951 418.112 235.951 417.002C235.951 412.607 239.452 409.028 243.679 409.299C256.668 410.115 269.746 411.338 282.647 413.966C295.703 416.639 308.67 420.694 321.616 425.542ZM321.616 393.012C308.693 387.303 295.725 382.5 282.647 379.351C269.746 376.248 256.668 374.775 243.679 373.824C239.43 373.507 235.951 377.063 235.951 381.504C235.951 382.614 235.951 383.724 235.951 384.834C235.951 389.228 239.452 392.83 243.679 393.125C256.668 393.986 269.746 395.39 282.647 398.222C295.725 401.099 308.693 405.516 321.616 410.772C325.909 412.516 329.344 411.021 329.344 407.079C329.344 406.083 329.344 405.063 329.344 404.089C329.344 400.079 325.909 394.914 321.616 393.012ZM321.616 360.436C325.953 362.656 329.344 368.115 329.344 372.034C329.344 373.054 329.344 374.073 329.344 375.07C329.344 379.012 325.953 380.19 321.616 378.151C308.714 372.034 295.747 366.892 282.647 363.539C269.768 360.255 256.668 358.578 243.679 357.581C239.43 357.264 235.951 353.64 235.951 349.245C235.951 348.135 235.951 347.025 235.951 345.892C235.951 341.497 239.452 337.918 243.679 338.258C256.69 339.345 269.79 341.112 282.647 344.669C295.747 348.316 308.714 353.844 321.616 360.436ZM321.616 327.883C308.737 320.43 295.813 314.155 282.647 310.032C269.812 306.022 256.668 304.051 243.679 302.805C239.43 302.397 235.951 305.999 235.951 310.394C235.951 311.549 235.951 312.659 235.951 313.747C235.951 318.142 239.452 321.789 243.679 322.151C256.69 323.284 269.812 325.096 282.647 328.879C295.791 332.73 308.737 338.62 321.616 345.62C325.953 347.976 329.344 347.048 329.344 343.128C329.344 342.109 329.344 341.112 329.344 340.093C329.344 336.174 325.975 330.397 321.616 327.883ZM321.616 295.352C325.997 298.184 329.344 304.21 329.344 308.151C329.344 309.148 329.344 310.168 329.344 311.142C329.344 315.129 325.975 315.74 321.616 313.067C308.737 305.184 295.813 298.592 282.647 294.242C269.834 290.006 256.668 287.944 243.679 286.653C239.43 286.223 235.951 282.644 235.951 278.203C235.951 277.093 235.951 275.983 235.951 274.873C235.951 270.479 239.452 266.877 243.679 267.33C256.69 268.689 269.856 270.954 282.647 275.417C295.835 280.016 308.759 287.038 321.616 295.352ZM321.616 262.822C308.759 253.647 295.879 245.9 282.647 240.802C269.878 235.887 256.69 233.372 243.679 231.854C239.452 231.356 235.951 234.935 235.951 239.353C235.951 240.463 235.951 241.573 235.951 242.683C235.951 247.123 239.452 250.702 243.679 251.178C256.69 252.628 269.878 254.938 282.647 259.628C295.857 264.475 308.759 271.792 321.616 280.514C325.997 283.482 329.344 283.187 329.344 279.2C329.344 278.181 329.344 277.184 329.344 276.21C329.344 272.223 325.997 265.948 321.616 262.822ZM-116.616 555.777C-103.648 554.418 -90.6368 553.285 -77.6473 552.538C-64.6797 551.79 -51.6682 551.45 -38.6787 551.224C-34.4296 551.156 -30.951 554.712 -30.951 559.153C-30.951 560.263 -30.951 561.373 -30.951 562.483C-30.951 566.923 -34.4296 570.525 -38.6787 570.57C-51.6682 570.729 -64.6797 570.91 -77.6473 571.385C-90.6368 571.884 -103.648 572.586 -116.616 573.47C-120.865 573.764 -124.344 570.842 -124.344 566.855C-124.344 565.881 -124.344 564.839 -124.344 563.865C-124.322 559.877 -120.865 556.23 -116.616 555.777ZM-116.616 523.201C-103.648 520.959 -90.6368 519.124 -77.6473 517.9C-64.6797 516.7 -51.6682 516.066 -38.6787 515.726C-34.4296 515.612 -30.951 519.169 -30.951 523.609C-30.951 524.719 -30.951 525.829 -30.951 526.939C-30.951 531.334 -34.4296 534.959 -38.6787 535.072C-51.6682 535.389 -64.6797 535.797 -77.6473 536.748C-90.6368 537.722 -103.648 539.172 -116.616 540.939C-120.865 541.505 -124.344 538.855 -124.344 534.913C-124.344 533.917 -124.344 532.897 -124.344 531.923C-124.322 527.936 -120.865 523.949 -116.616 523.201ZM-116.616 490.648C-103.648 487.522 -90.6588 484.94 -77.6473 483.263C-64.7018 481.587 -51.6682 480.749 -38.6787 480.228C-34.4296 480.046 -30.951 483.671 -30.951 488.066C-30.951 489.221 -30.951 490.331 -30.951 491.418C-30.951 495.813 -34.4296 499.438 -38.6787 499.574C-51.6682 500.004 -64.7018 500.684 -77.6473 502.111C-90.6588 503.538 -103.648 505.69 -116.616 508.341C-120.887 509.224 -124.344 506.868 -124.344 502.926C-124.344 501.93 -124.344 500.91 -124.344 499.891C-124.322 495.972 -120.865 491.668 -116.616 490.648ZM-116.616 458.118C-103.67 454.108 -90.6808 450.778 -77.6473 448.603C-64.7238 446.429 -51.6682 445.477 -38.6787 444.798C-34.4296 444.571 -30.951 448.173 -30.951 452.545C-30.951 453.7 -30.951 454.81 -30.951 455.898C-30.951 460.293 -34.4296 463.917 -38.6787 464.098C-51.6682 464.687 -64.7238 465.571 -77.6473 467.451C-90.6808 469.377 -103.67 472.299 -116.616 475.81C-120.887 476.965 -124.344 474.904 -124.344 470.962C-124.344 469.988 -124.344 468.946 -124.344 467.927C-124.322 464.008 -120.887 459.432 -116.616 458.118ZM-116.616 425.542C-120.909 427.15 -124.344 432.066 -124.344 436.008C-124.344 437.005 -124.344 438.024 -124.344 438.998C-124.344 442.985 -120.909 444.707 -116.616 443.257C-103.67 438.885 -90.7028 435.192 -77.6473 432.791C-64.7238 430.435 -51.6682 429.28 -38.6787 428.578C-34.4296 428.351 -30.951 424.772 -30.951 420.332C-30.951 419.222 -30.951 418.112 -30.951 417.002C-30.951 412.607 -34.4516 409.028 -38.6787 409.299C-51.6682 410.115 -64.7458 411.338 -77.6473 413.966C-90.7028 416.639 -103.67 420.694 -116.616 425.542ZM-116.616 393.012C-103.692 387.303 -90.7249 382.5 -77.6473 379.351C-64.7458 376.248 -51.6682 374.775 -38.6787 373.824C-34.4296 373.507 -30.951 377.063 -30.951 381.504C-30.951 382.614 -30.951 383.724 -30.951 384.834C-30.951 389.228 -34.4516 392.83 -38.6787 393.125C-51.6682 393.986 -64.7458 395.39 -77.6473 398.222C-90.7249 401.099 -103.692 405.516 -116.616 410.772C-120.909 412.516 -124.344 411.021 -124.344 407.079C-124.344 406.083 -124.344 405.063 -124.344 404.089C-124.322 400.079 -120.909 394.914 -116.616 393.012ZM-116.616 360.436C-120.953 362.656 -124.344 368.115 -124.344 372.034C-124.344 373.054 -124.344 374.073 -124.344 375.07C-124.344 379.012 -120.953 380.19 -116.616 378.151C-103.714 372.034 -90.7469 366.892 -77.6473 363.539C-64.7678 360.255 -51.6682 358.578 -38.6787 357.581C-34.4296 357.264 -30.951 353.64 -30.951 349.245C-30.951 348.135 -30.951 347.025 -30.951 345.892C-30.951 341.497 -34.4516 337.918 -38.6787 338.258C-51.6902 339.345 -64.7898 341.112 -77.6473 344.669C-90.7469 348.316 -103.692 353.844 -116.616 360.436ZM-116.616 327.883C-103.736 320.43 -90.8129 314.155 -77.6473 310.032C-64.8118 306.022 -51.6682 304.051 -38.6787 302.805C-34.4516 302.397 -30.951 305.999 -30.951 310.394C-30.951 311.549 -30.951 312.659 -30.951 313.747C-30.951 318.142 -34.4516 321.789 -38.6787 322.151C-51.6902 323.284 -64.8118 325.096 -77.6473 328.879C-90.7909 332.73 -103.736 338.62 -116.616 345.62C-120.953 347.976 -124.344 347.048 -124.344 343.128C-124.344 342.109 -124.344 341.112 -124.344 340.093C-124.322 336.174 -120.953 330.397 -116.616 327.883ZM-116.616 295.352C-120.997 298.184 -124.344 304.21 -124.344 308.151C-124.344 309.148 -124.344 310.168 -124.344 311.142C-124.344 315.129 -120.975 315.74 -116.616 313.067C-103.736 305.184 -90.8129 298.592 -77.6473 294.242C-64.8338 290.006 -51.6682 287.944 -38.6787 286.653C-34.4516 286.223 -30.951 282.644 -30.951 278.203C-30.951 277.093 -30.951 275.983 -30.951 274.873C-30.951 270.479 -34.4516 266.877 -38.6787 267.33C-51.6902 268.689 -64.8559 270.954 -77.6473 275.417C-90.8349 280.016 -103.736 287.038 -116.616 295.352ZM-116.616 262.822C-103.758 253.647 -90.879 245.9 -77.6473 240.802C-64.8779 235.887 -51.6902 233.372 -38.6787 231.854C-34.4516 231.356 -30.951 234.935 -30.951 239.353C-30.951 240.463 -30.951 241.573 -30.951 242.683C-30.951 247.123 -34.4516 250.702 -38.6787 251.178C-51.6902 252.628 -64.8779 254.938 -77.6473 259.628C-90.857 264.475 -103.758 271.792 -116.616 280.514C-120.997 283.482 -124.344 283.187 -124.344 279.2C-124.344 278.181 -124.344 277.184 -124.344 276.21C-124.322 272.223 -120.997 265.948 -116.616 262.822ZM-116.616 230.223C-121.019 233.667 -124.344 240.281 -124.344 244.201C-124.344 245.22 -124.344 246.217 -124.344 247.236C-124.344 251.178 -121.019 251.268 -116.616 247.984C-103.78 238.379 -90.901 230.359 -77.6473 225.013C-64.8999 219.871 -51.6902 217.311 -38.6787 215.702C-34.4516 215.181 -30.951 211.557 -30.951 207.162C-30.951 206.052 -30.951 204.942 -30.951 203.809C-30.951 199.414 -34.4516 195.79 -38.6787 196.334C-51.6902 198.01 -64.9439 200.706 -77.6473 206.097C-90.923 211.715 -103.78 220.165 -116.616 230.223ZM321.616 230.223C326.019 233.667 329.344 240.281 329.344 244.201C329.344 245.22 329.344 246.217 329.344 247.236C329.344 251.178 326.019 251.268 321.616 247.984C308.781 238.379 295.901 230.359 282.647 225.013C269.9 219.871 256.69 217.311 243.679 215.702C239.452 215.181 235.951 211.557 235.951 207.162C235.951 206.052 235.951 204.942 235.951 203.809C235.951 199.414 239.452 195.79 243.679 196.334C256.69 198.01 269.944 200.706 282.647 206.097C295.923 211.715 308.781 220.165 321.616 230.223Z" fill="white"/>
</svg>
